<svg width="104" height="62" viewBox="0 0 104 62" fill="none" xmlns="http://www.w3.org/2000/svg">
    <path opacity="0.1" d="M101.953 34.2032L56.4811 60.8035C54.0059 62.2512 50.2624 62.4088 48.1191 61.1548L1.44697 33.8519C-0.696302 32.5979 -0.427569 30.4079 2.04708 28.9601L47.5184 2.35991C49.9936 0.912159 53.7372 0.754578 55.8805 2.00855L102.553 29.3115C104.696 30.5649 104.428 32.7555 101.953 34.2032Z" fill="#FFBE00"/>
    <path opacity="0.1" d="M95.8668 33.8847L55.9344 57.2447C53.7609 58.516 50.4729 58.6541 48.5907 57.5532L7.6048 33.5768C5.72257 32.4759 5.95833 30.5521 8.13182 29.2808L48.0642 5.92079C50.2377 4.64955 53.5257 4.51145 55.4079 5.6123L96.3944 29.5888C98.276 30.6902 98.0403 32.6134 95.8668 33.8847Z" fill="#FFBE00"/>
    <path d="M93.5778 25.6819C93.8087 24.8706 93.4492 24.0571 92.4699 23.4841L54.5594 1.30678C52.8184 0.288341 49.7771 0.415851 47.7669 1.59187L10.8318 23.1985C10.1973 23.5696 9.65625 24.4029 9.65625 25.1379L9.65625 29.4634C9.65625 30.6366 9.76946 31.2458 10.8318 31.8667L48.7423 54.0441C50.4833 55.0625 53.5245 54.935 55.5348 53.759L92.4699 32.1524C93.7801 31.3862 94.0878 30.4173 94.0653 29.4634L93.5778 25.6819Z" fill="#FFBE00"/>
    <path d="M49.248 54.2813C51.0215 55.0213 53.683 54.8336 55.5135 53.7723V0.95561L55.0475 0.682761C53.5731 -0.179765 51.1715 -0.211499 49.248 0.510707V54.2813Z" fill="#FFBE00"/>
    <path d="M92.9572 22.8615L83.5961 17.3854L74.235 11.9093L69.5544 9.17122L64.8738 6.43316L60.1933 3.69509L55.5127 0.957031V53.7741C55.5193 53.7702 55.5275 53.7675 55.5341 53.7636L92.4692 32.1569C93.7794 31.3907 94.1316 30.5861 94.0646 29.468V25.0593C94.296 24.248 93.9365 23.4345 92.9572 22.8615Z" fill="#FFBE00"/>
    <path opacity="0.1" d="M90.847 21.6074L90.5766 25.3977C90.5255 26.3137 90.1716 27.2409 88.9197 27.972L55.0835 47.7232C53.3194 48.7528 50.6623 48.8642 49.1357 47.9732L14.4054 27.6997C13.3893 27.1067 13.2403 26.5242 13.1519 25.3972L12.7174 22.0702C10.828 23.1251 9.65723 25.1196 9.65723 27.2835V29.4659C9.65723 30.6392 9.77044 31.2483 10.8327 31.8692L48.7433 54.0466C50.4843 55.065 53.5255 54.9375 55.5358 53.7615L92.4709 32.1549C93.7805 31.3887 94.0888 30.4198 94.0663 29.4659V24.2415C94.1141 23.4228 90.847 21.6074 90.847 21.6074Z" fill="#FFBE00"/>
    <path opacity="0.1" d="M91.971 22.2832L91.7435 27.6332C91.7238 28.567 91.388 29.5136 90.1091 30.2609L54.8958 50.8351C53.0251 51.9282 50.202 52.0468 48.5825 51.1007L12.4393 29.983C11.4017 29.3766 11.2677 28.7825 11.2165 27.6338L10.8904 23.2087C9.89632 23.7342 9.27441 24.7664 9.27441 25.8909V29.1484C9.27441 30.3216 9.38762 30.9307 10.4499 31.5516L48.3605 53.729C50.1015 54.7474 53.1427 54.6199 55.153 53.4439L92.0881 31.8373C93.3977 31.0711 93.706 30.1022 93.6835 29.1484L93.8329 23.6714L93.6924 23.4578L93.4816 23.2443L93.2708 23.0663L93.0249 22.9239L91.971 22.2832Z" fill="#FFBE00"/>
    <path d="M92.4738 26.8385L55.5387 48.4451C53.5284 49.6211 50.4871 49.7486 48.7462 48.7302L10.8356 26.5529C9.09459 25.5344 9.31276 23.7554 11.323 22.5793L48.2581 0.972736C50.2684 -0.203285 53.3097 -0.330803 55.0507 0.687635L92.9612 22.865C94.7028 23.8834 94.484 25.6625 92.4738 26.8385Z" fill="#F0F7F5"/>
    <path d="M49.513 3.68541L15.9577 23.3147C14.6404 24.0854 14.6404 25.3349 15.9577 26.105L49.513 45.7343C50.8303 46.5049 52.9659 46.5049 54.2832 45.7343L87.8385 26.105C89.1558 25.3343 89.1558 24.0848 87.8385 23.3147L54.2832 3.68541C52.9664 2.91476 50.8309 2.91476 49.513 3.68541ZM82.8617 24.0525C83.4827 24.4161 83.4827 25.0052 82.8617 25.3683L53.023 42.8237C52.402 43.1873 51.3947 43.1873 50.7737 42.8237L20.935 25.3683C20.314 25.0047 20.314 24.4156 20.935 24.0525L50.7737 6.59706C51.3947 6.23346 52.402 6.23346 53.023 6.59706L82.8617 24.0525Z" fill="#FFBE00"/>
    <path opacity="0.4" d="M48.6136 2.88064L14.5829 22.7884C12.8825 23.7828 12.8825 25.396 14.5829 26.3905L23.7071 31.7282C33.0161 30.9509 42.4926 28.2508 50.2221 23.7294C57.9516 19.208 62.5673 13.6642 63.8956 8.2184L54.7713 2.88064C53.071 1.88614 50.3144 1.88614 48.6136 2.88064Z" fill="white"/>
    <path d="M39.7861 22.9007L55.5315 31.9917L52.2025 33.9137L39.6169 26.6472L39.5247 26.7005L38.1792 30.0874L35.227 28.3828L36.657 24.7074L39.7861 22.9007ZM65.309 26.595C64.1609 27.2579 62.941 27.7344 61.6494 28.0244C60.3578 28.3085 59.1046 28.3987 57.8899 28.2951C56.6752 28.1857 55.6014 27.8705 54.6685 27.3497L58.0206 25.4143C58.4255 25.6244 58.8894 25.7472 59.4122 25.7827C59.935 25.8123 60.4706 25.7605 61.019 25.6274C61.5674 25.4942 62.0851 25.287 62.572 25.0059C63.0794 24.7129 63.4382 24.4022 63.6484 24.0737C63.8585 23.7453 63.9149 23.4256 63.8175 23.1149C63.7201 22.8042 63.4638 22.529 63.0487 22.2893C62.6284 22.0466 62.1389 21.9001 61.5802 21.8498C61.0216 21.7936 60.4321 21.838 59.8119 21.983C59.1969 22.125 58.5921 22.3677 57.9975 22.711L56.5291 23.5588L54.0842 22.1472L55.5527 21.2994C56.055 21.0094 56.4112 20.7031 56.6213 20.3805C56.8366 20.055 56.8981 19.7413 56.8059 19.4395C56.7085 19.1347 56.4522 18.8624 56.037 18.6227C55.6424 18.3949 55.2016 18.2499 54.7147 18.1877C54.2277 18.1197 53.7306 18.1345 53.2231 18.2321C52.7209 18.3268 52.2467 18.5029 51.8008 18.7603C51.3498 19.0208 51.0192 19.3063 50.809 19.6171C50.5938 19.9248 50.522 20.2296 50.5938 20.5315C50.6655 20.8333 50.8936 21.1041 51.278 21.3438L48.0874 23.1859C47.1956 22.6533 46.6549 22.0422 46.4652 21.3527C46.2756 20.6632 46.4114 19.9603 46.8727 19.2442C47.334 18.5221 48.1028 17.8504 49.1791 17.2289C50.2657 16.6015 51.4139 16.1665 52.6235 15.9239C53.8331 15.6812 54.9991 15.6235 56.1216 15.7508C57.2441 15.8721 58.2179 16.1739 59.0431 16.6563C59.9298 17.1623 60.3911 17.7453 60.427 18.4052C60.468 19.0622 60.1272 19.691 59.4045 20.2918L59.5275 20.3628C60.8345 19.7798 62.1184 19.5031 63.3793 19.5327C64.6401 19.5564 65.7575 19.8523 66.7313 20.4205C67.6334 20.9354 68.1716 21.545 68.3459 22.2493C68.5252 22.9507 68.3587 23.6801 67.8461 24.4377C67.3336 25.1953 66.4879 25.9144 65.309 26.595Z" fill="#FFBE00"/>
</svg>
