<svg width="104" height="62" viewBox="0 0 104 62" fill="none" xmlns="http://www.w3.org/2000/svg">
    <path opacity="0.1" d="M101.953 34.2032L56.4811 60.8035C54.0059 62.2512 50.2624 62.4088 48.1191 61.1548L1.44697 33.8519C-0.696302 32.5979 -0.427569 30.4079 2.04708 28.9601L47.5184 2.35991C49.9936 0.912159 53.7372 0.754578 55.8805 2.00855L102.553 29.3115C104.696 30.5649 104.428 32.7555 101.953 34.2032Z" fill="#FFBE00"/>
    <path opacity="0.1" d="M95.8668 33.8847L55.9344 57.2447C53.7609 58.516 50.4729 58.6541 48.5907 57.5532L7.6048 33.5768C5.72257 32.4759 5.95833 30.5521 8.13182 29.2808L48.0642 5.92079C50.2377 4.64955 53.5257 4.51145 55.4079 5.6123L96.3944 29.5888C98.276 30.6902 98.0403 32.6134 95.8668 33.8847Z" fill="#FFBE00"/>
    <path d="M93.5778 25.6819C93.8087 24.8706 93.4492 24.0571 92.4699 23.4841L54.5594 1.30678C52.8184 0.288341 49.7771 0.415851 47.7669 1.59187L10.8318 23.1985C10.1973 23.5696 9.65625 24.4029 9.65625 25.1379L9.65625 29.4634C9.65625 30.6366 9.76946 31.2458 10.8318 31.8667L48.7423 54.0441C50.4833 55.0625 53.5245 54.935 55.5348 53.759L92.4699 32.1524C93.7801 31.3862 94.0878 30.4173 94.0653 29.4634L93.5778 25.6819Z" fill="#FFBE00"/>
    <path d="M49.248 54.2813C51.0215 55.0213 53.683 54.8336 55.5135 53.7723V0.95561L55.0475 0.682761C53.5731 -0.179765 51.1715 -0.211499 49.248 0.510707V54.2813Z" fill="#FFBE00"/>
    <path d="M92.9572 22.8615L83.5961 17.3854L74.235 11.9093L69.5544 9.17122L64.8738 6.43316L60.1933 3.69509L55.5127 0.957031V53.7741C55.5193 53.7702 55.5275 53.7675 55.5341 53.7636L92.4692 32.1569C93.7794 31.3907 94.1316 30.5861 94.0646 29.468V25.0593C94.296 24.248 93.9365 23.4345 92.9572 22.8615Z" fill="#FFBE00"/>
    <path opacity="0.1" d="M90.847 21.6074L90.5766 25.3977C90.5255 26.3137 90.1716 27.2409 88.9197 27.972L55.0835 47.7232C53.3194 48.7528 50.6623 48.8642 49.1357 47.9732L14.4054 27.6997C13.3893 27.1067 13.2403 26.5242 13.1519 25.3972L12.7174 22.0702C10.828 23.1251 9.65723 25.1196 9.65723 27.2835V29.4659C9.65723 30.6392 9.77044 31.2483 10.8327 31.8692L48.7433 54.0466C50.4843 55.065 53.5255 54.9375 55.5358 53.7615L92.4709 32.1549C93.7805 31.3887 94.0888 30.4198 94.0663 29.4659V24.2415C94.1141 23.4228 90.847 21.6074 90.847 21.6074Z" fill="#FFBE00"/>
    <path opacity="0.1" d="M91.971 22.2832L91.7435 27.6332C91.7238 28.567 91.388 29.5136 90.1091 30.2609L54.8958 50.8351C53.0251 51.9282 50.202 52.0468 48.5825 51.1007L12.4393 29.983C11.4017 29.3766 11.2677 28.7825 11.2165 27.6338L10.8904 23.2087C9.89632 23.7342 9.27441 24.7664 9.27441 25.8909V29.1484C9.27441 30.3216 9.38762 30.9307 10.4499 31.5516L48.3605 53.729C50.1015 54.7474 53.1427 54.6199 55.153 53.4439L92.0881 31.8373C93.3977 31.0711 93.706 30.1022 93.6835 29.1484L93.8329 23.6714L93.6924 23.4578L93.4816 23.2443L93.2708 23.0663L93.0249 22.9239L91.971 22.2832Z" fill="#FFBE00"/>
    <path d="M92.4738 26.8385L55.5387 48.4451C53.5284 49.6211 50.4871 49.7486 48.7462 48.7302L10.8356 26.5529C9.09459 25.5344 9.31276 23.7554 11.323 22.5793L48.2581 0.972736C50.2684 -0.203285 53.3097 -0.330803 55.0507 0.687635L92.9612 22.865C94.7028 23.8834 94.484 25.6625 92.4738 26.8385Z" fill="#F0F7F5"/>
    <path d="M49.513 3.68541L15.9577 23.3147C14.6404 24.0854 14.6404 25.3349 15.9577 26.105L49.513 45.7343C50.8303 46.5049 52.9659 46.5049 54.2832 45.7343L87.8385 26.105C89.1558 25.3343 89.1558 24.0848 87.8385 23.3147L54.2832 3.68541C52.9664 2.91476 50.8309 2.91476 49.513 3.68541ZM82.8617 24.0525C83.4827 24.4161 83.4827 25.0052 82.8617 25.3683L53.023 42.8237C52.402 43.1873 51.3947 43.1873 50.7737 42.8237L20.935 25.3683C20.314 25.0047 20.314 24.4156 20.935 24.0525L50.7737 6.59706C51.3947 6.23346 52.402 6.23346 53.023 6.59706L82.8617 24.0525Z" fill="#FFBE00"/>
    <path opacity="0.4" d="M48.6136 2.88064L14.5829 22.7884C12.8825 23.7828 12.8825 25.396 14.5829 26.3905L23.7071 31.7282C33.0161 30.9509 42.4926 28.2508 50.2221 23.7294C57.9516 19.208 62.5673 13.6642 63.8956 8.2184L54.7713 2.88064C53.071 1.88614 50.3144 1.88614 48.6136 2.88064Z" fill="white"/>
    <path d="M39.7861 22.9007L55.5315 31.9917L52.2025 33.9137L39.6169 26.6472L39.5247 26.7005L38.1792 30.0874L35.227 28.3828L36.657 24.7074L39.7861 22.9007ZM65.3628 26.564C64.1788 27.2476 62.9334 27.7447 61.6264 28.0554C60.3194 28.3602 59.0687 28.4697 57.8745 28.3839C56.6803 28.2981 55.6577 28.0096 54.8069 27.5183C54.1509 27.1395 53.6973 26.706 53.4461 26.2177C53.195 25.7235 53.1463 25.2219 53.3 24.7129C53.4487 24.201 53.7921 23.7305 54.3302 23.3014L54.2226 23.2392C53.2129 23.6269 52.1237 23.7852 50.9551 23.7142C49.7814 23.6402 48.764 23.3546 47.9029 22.8575C47.088 22.3869 46.601 21.8306 46.4421 21.1884C46.2781 20.5433 46.4293 19.876 46.8957 19.1865C47.3622 18.491 48.1259 17.837 49.1868 17.2245C50.2478 16.6119 51.378 16.1725 52.5773 15.9061C53.7818 15.6368 54.9427 15.5495 56.0601 15.6442C57.1723 15.736 58.1359 16.0141 58.9509 16.4787C59.8119 16.9818 60.3014 17.5722 60.4193 18.2499C60.5372 18.9275 60.2681 19.5534 59.612 20.1275L59.7197 20.1897C60.4526 19.8849 61.2599 19.691 62.1415 19.6082C63.0231 19.5194 63.8918 19.5475 64.7478 19.6925C65.6037 19.8316 66.3623 20.0891 67.0235 20.4649C67.8692 20.9591 68.3664 21.5509 68.515 22.2405C68.6636 22.93 68.4714 23.6535 67.9384 24.4111C67.4053 25.1627 66.5468 25.8804 65.3628 26.564ZM62.918 25.1524C63.4459 24.8476 63.8124 24.5265 64.0174 24.1891C64.2173 23.8488 64.2583 23.5174 64.1404 23.1948C64.0225 22.8663 63.7406 22.5734 63.2947 22.3159C62.8385 22.0525 62.3209 21.8868 61.7417 21.8188C61.1574 21.7477 60.568 21.7685 59.9734 21.8809C59.3737 21.9904 58.8176 22.1931 58.3051 22.489C57.7976 22.782 57.4465 23.1031 57.2518 23.4523C57.0519 23.7985 57.0134 24.1403 57.1364 24.4777C57.2595 24.8091 57.549 25.1065 58.0052 25.3699C58.4511 25.6274 58.956 25.7916 59.5198 25.8626C60.0785 25.9307 60.6551 25.9055 61.2496 25.7872C61.8391 25.6658 62.3952 25.4542 62.918 25.1524ZM55.8833 21.0908C56.3241 20.8363 56.6265 20.5581 56.7905 20.2563C56.9545 19.9544 56.975 19.6555 56.852 19.3596C56.729 19.0637 56.4599 18.7959 56.0447 18.5562C55.6347 18.3194 55.1785 18.1685 54.6762 18.1034C54.1688 18.0353 53.6588 18.0486 53.1463 18.1433C52.6286 18.2351 52.1442 18.4111 51.6932 18.6716C51.2473 18.929 50.9423 19.2087 50.7783 19.5105C50.6092 19.8094 50.5835 20.1053 50.7014 20.3983C50.8193 20.6854 51.0833 20.9473 51.4933 21.184C51.9085 21.4237 52.3723 21.5791 52.8849 21.6501C53.3974 21.7211 53.9151 21.7093 54.4379 21.6146C54.9607 21.5199 55.4425 21.3453 55.8833 21.0908Z" fill="#FFBE00"/>
</svg>
