<svg width="104" height="74" viewBox="0 0 104 74" fill="none" xmlns="http://www.w3.org/2000/svg">
    <path opacity="0.1" d="M101.953 45.6721L56.4812 71.925C54.006 73.3538 50.2624 73.5093 48.1191 72.2717L1.44697 45.3253C-0.696302 44.0877 -0.42757 41.9263 2.04708 40.4975L47.5184 14.2447C49.9936 12.8158 53.7372 12.6603 55.8805 13.8979L102.553 40.8443C104.696 42.0813 104.428 44.2433 101.953 45.6721Z" fill="#FFBE00"/>
    <path opacity="0.1" d="M95.8668 45.3554L55.9344 68.4103C53.7609 69.665 50.4729 69.8013 48.5907 68.7148L7.6048 45.0515C5.72257 43.965 5.95833 42.0663 8.13182 40.8116L48.0642 17.7567C50.2377 16.502 53.5257 16.3657 55.4079 17.4522L96.3944 41.1155C98.276 42.2026 98.0403 44.1007 95.8668 45.3554Z" fill="#FFBE00"/>
    <path d="M94.1698 24.7355C94.4006 23.9348 94.0412 23.1319 93.0619 22.5664L55.1513 0.678658C53.4103 -0.326479 50.3691 -0.200635 48.3588 0.960027L11.4237 22.2844C10.3795 22.8873 9.82339 23.6506 9.76953 24.3859H9.76074V41.9794C9.76074 43.1373 9.87395 43.7386 10.9362 44.3513L48.8468 66.239C50.5878 67.2442 53.629 67.1183 55.6393 65.9576L92.5744 44.6332C93.8846 43.8771 94.1923 42.9208 94.1698 41.9794V24.7355Z" fill="#FFBE00"/>
    <path d="M49.3516 66.4701C51.125 67.2004 53.7865 67.0152 55.6171 65.9678V0.947036L55.151 0.677751C53.6766 -0.173511 51.275 -0.204831 49.3516 0.507943V66.4701Z" fill="#F1B400"/>
    <path d="M93.0607 22.5657L55.6162 0.947266V65.968C55.6228 65.9641 55.631 65.9614 55.6376 65.9575L92.5728 44.6331C93.8829 43.8769 94.2352 43.0828 94.1681 41.9793V24.7348C94.3995 23.9341 94.0401 23.1312 93.0607 22.5657Z" fill="#FFBE00"/>
    <path opacity="0.1" d="M93.0623 22.5652L91.9517 21.9238L90.6811 37.9626C90.63 38.8666 90.2761 39.7817 89.0242 40.5032L55.188 59.9965C53.4239 61.0127 50.7668 61.1226 49.2402 60.2433L14.5099 40.2345C13.4938 39.6492 13.3448 39.0744 13.2563 37.9621L11.9863 21.9585L11.4247 22.2827C10.3805 22.8856 9.82437 23.6489 9.77051 24.3842H9.76172V41.9777C9.76172 43.1356 9.87493 43.7368 10.9372 44.3496L48.8478 66.2373C50.5888 67.2424 53.63 67.1166 55.6403 65.9559L92.5754 44.6315C93.885 43.8753 94.1933 42.9191 94.1708 41.9777V24.7332C94.401 23.9336 94.0416 23.1307 93.0623 22.5652Z" fill="#FFBE00"/>
    <path opacity="0.1" d="M93.0843 22.5801C93.1013 22.8032 93.0782 23.0302 93.0057 23.2577L92.2308 40.4841C92.2111 41.4057 91.8753 42.3399 90.5965 43.0774L55.3831 63.383C53.5124 64.4617 50.6893 64.5788 49.0698 63.6451L12.9266 42.8032C11.889 42.2047 11.755 41.6184 11.7038 40.4846L10.9119 22.9027H10.9207C10.9235 22.7994 10.9372 22.696 10.9581 22.5922C10.2173 23.1362 9.81557 23.7704 9.77051 24.3859H9.76172V41.9794C9.76172 43.1373 9.87493 43.7385 10.9372 44.3513L48.8478 66.239C50.5888 67.2441 53.63 67.1183 55.6403 65.9576L92.5754 44.6332C93.885 43.877 94.1933 42.9208 94.1708 41.9794V24.7349C94.3988 23.9402 94.0455 23.1445 93.0843 22.5801Z" fill="#FFBE00"/>
    <path d="M92.5744 26.488L55.6392 47.8124C53.629 48.9731 50.5877 49.0989 48.8467 48.0938L10.9362 26.2061C9.19517 25.2009 9.41335 23.4451 11.4236 22.2845L48.3587 0.960032C50.369 -0.20063 53.4102 -0.326483 55.1512 0.678655L93.0618 22.5664C94.8034 23.5715 94.5846 25.3273 92.5744 26.488Z" fill="#F0F7F5"/>
    <path d="M92.5751 26.4876C89.2641 28.5429 85.9173 30.5367 82.5892 32.5629L72.5455 38.5388C69.2053 40.5435 65.8255 42.4807 62.4644 44.4498L57.4167 47.3927L56.155 48.1285C55.9538 48.25 55.717 48.3764 55.4812 48.5C55.2416 48.6088 55.002 48.7182 54.7552 48.8034C53.7721 49.1606 52.7389 49.3211 51.7003 49.3211C50.6655 49.2925 49.601 49.1298 48.6255 48.5846L46.0953 47.1118L41.0477 44.1684C37.6871 42.1983 34.3063 40.2638 30.9661 38.2579L20.9224 32.2821C17.5948 30.2553 14.248 28.261 10.9375 26.2051C14.3733 28.0444 17.7734 29.9459 21.1928 31.8138L31.3898 37.5237C34.7965 39.4131 38.1625 41.3745 41.5489 43.2996L46.6213 46.199L49.1531 47.6438C49.8889 48.0543 50.8122 48.2011 51.7124 48.2192C52.6197 48.2269 53.5413 48.0917 54.392 47.7894C54.6069 47.7185 54.8102 47.6257 55.0157 47.5361C55.2114 47.4339 55.4059 47.335 55.623 47.2064L56.8914 46.4815L61.9638 43.5815C65.3496 41.6553 68.7167 39.6967 72.1234 37.8068L82.3204 32.0969C85.7398 30.2289 89.1399 28.328 92.5751 26.4876Z" fill="white"/>
    <path d="M49.6136 3.63685L16.0583 23.0098C14.741 23.7704 14.741 25.0036 16.0583 25.7636L49.6136 45.1366C50.9309 45.8972 53.0665 45.8972 54.3838 45.1366L87.9391 25.7636C89.2564 25.003 89.2564 23.7698 87.9391 23.0098L54.3838 3.63685C53.067 2.87626 50.9314 2.87626 49.6136 3.63685ZM82.9623 23.7379C83.5833 24.0968 83.5833 24.6782 82.9623 25.0366L53.1236 42.264C52.5026 42.6229 51.4953 42.6229 50.8743 42.264L21.0356 25.0366C20.4146 24.6777 20.4146 24.0963 21.0356 23.7379L50.8743 6.51048C51.4953 6.15162 52.5026 6.15162 53.1236 6.51048L82.9623 23.7379Z" fill="#FFBE00"/>
    <path opacity="0.4" d="M48.7142 2.8416L14.6834 22.4893C12.9831 23.4708 12.9831 25.0629 14.6834 26.0444L23.8077 31.3124C33.1167 30.5453 42.5932 27.8805 50.3227 23.4181C58.0522 18.9557 62.6679 13.4843 63.9962 8.10965L54.8719 2.8416C53.1716 1.86009 50.415 1.86009 48.7142 2.8416Z" fill="white"/>
    <path d="M39.7861 22.9007L55.5315 31.9917L52.2025 33.9137L39.6169 26.6472L39.5247 26.7005L38.1792 30.0874L35.227 28.3828L36.657 24.7074L39.7861 22.9007ZM49.01 17.3266C49.8198 16.859 50.7347 16.4876 51.7547 16.2124C52.7798 15.9342 53.8843 15.7966 55.0683 15.7996C56.2574 15.7996 57.5157 15.9845 58.8432 16.3544C60.1707 16.7184 61.5495 17.3103 62.9795 18.13C64.3172 18.9024 65.3603 19.6792 66.1086 20.4604C66.8569 21.2358 67.3182 21.9963 67.4925 22.7421C67.6667 23.4878 67.5514 24.1995 67.1465 24.8772C66.7365 25.5519 66.0445 26.1704 65.0707 26.7326C64.02 27.3393 62.8898 27.758 61.6802 27.9889C60.4654 28.2167 59.261 28.27 58.0667 28.1487C56.8725 28.0214 55.7833 27.7329 54.7992 27.2831L58.0821 25.3877C58.7843 25.6451 59.4993 25.7472 60.2271 25.6939C60.9498 25.6377 61.6135 25.435 62.2184 25.0858C63.2434 24.4939 63.5766 23.7867 63.2178 22.964C62.8539 22.1384 61.8954 21.2743 60.3424 20.3717L60.2348 20.4338C60.4603 20.8363 60.5398 21.2491 60.4731 21.6723C60.4014 22.0925 60.1964 22.5038 59.8581 22.9063C59.5249 23.3058 59.0687 23.6727 58.4896 24.0071C57.5619 24.5428 56.5163 24.8949 55.3528 25.0636C54.1893 25.2323 53.0156 25.2175 51.8316 25.0192C50.6476 24.8209 49.5661 24.4392 48.5872 23.874C47.5262 23.2673 46.8291 22.5837 46.496 21.8232C46.1628 21.0627 46.2038 20.2932 46.619 19.515C47.0341 18.7307 47.8311 18.0013 49.01 17.3266ZM51.6471 18.8225C51.1294 19.1214 50.7911 19.4587 50.6322 19.8346C50.4785 20.2074 50.4913 20.5818 50.6707 20.9576C50.8552 21.3305 51.2063 21.6634 51.7239 21.9564C52.2416 22.2553 52.8208 22.4594 53.4615 22.5689C54.1022 22.6725 54.7428 22.6814 55.3835 22.5956C56.0242 22.5038 56.6008 22.31 57.1134 22.0141C57.4978 21.7921 57.7823 21.545 57.9668 21.2728C58.1513 21.0005 58.2384 20.7223 58.2282 20.4383C58.2179 20.1482 58.1154 19.8671 57.9206 19.5949C57.7259 19.3226 57.4414 19.0785 57.0673 18.8624C56.565 18.5783 55.9909 18.383 55.3451 18.2765C54.6993 18.17 54.0483 18.1611 53.3923 18.2499C52.7362 18.3386 52.1545 18.5295 51.6471 18.8225Z" fill="#FFBE00"/>
</svg>
