<svg width="104" height="74" viewBox="0 0 104 74" fill="none" xmlns="http://www.w3.org/2000/svg">
    <path opacity="0.1" d="M101.953 45.6721L56.4812 71.925C54.006 73.3538 50.2624 73.5093 48.1191 72.2717L1.44697 45.3253C-0.696302 44.0877 -0.42757 41.9263 2.04708 40.4975L47.5184 14.2447C49.9936 12.8158 53.7372 12.6603 55.8805 13.8979L102.553 40.8443C104.696 42.0813 104.428 44.2433 101.953 45.6721Z" fill="black"/>
    <path opacity="0.1" d="M95.8668 45.3554L55.9344 68.4103C53.7609 69.665 50.4729 69.8013 48.5907 68.7148L7.6048 45.0515C5.72257 43.965 5.95833 42.0663 8.13182 40.8116L48.0642 17.7567C50.2377 16.502 53.5257 16.3657 55.4079 17.4522L96.3944 41.1155C98.276 42.2026 98.0403 44.1007 95.8668 45.3554Z" fill="black"/>
    <path d="M94.1698 24.7355C94.4006 23.9348 94.0412 23.1319 93.0619 22.5664L55.1513 0.678658C53.4103 -0.326479 50.3691 -0.200635 48.3588 0.960027L11.4237 22.2844C10.3795 22.8873 9.82339 23.6506 9.76953 24.3859H9.76074V41.9794C9.76074 43.1373 9.87395 43.7386 10.9362 44.3513L48.8468 66.239C50.5878 67.2442 53.629 67.1183 55.6393 65.9576L92.5744 44.6332C93.8846 43.8771 94.1923 42.9208 94.1698 41.9794V24.7355Z" fill="#A3A3A3"/>
    <path d="M49.3516 66.4701C51.125 67.2004 53.7865 67.0152 55.6171 65.9678V0.947036L55.151 0.677751C53.6766 -0.173511 51.275 -0.204831 49.3516 0.507943V66.4701Z" fill="#8C8C8C"/>
    <path d="M93.0607 22.5657L55.6162 0.947266V65.968C55.6228 65.9641 55.631 65.9614 55.6376 65.9575L92.5728 44.6331C93.8829 43.8769 94.2352 43.0828 94.1681 41.9793V24.7348C94.3995 23.9341 94.0401 23.1312 93.0607 22.5657Z" fill="#939393"/>
    <path opacity="0.1" d="M93.0623 22.5652L91.9517 21.9238L90.6811 37.9626C90.63 38.8666 90.2761 39.7817 89.0242 40.5032L55.188 59.9965C53.4239 61.0127 50.7668 61.1226 49.2402 60.2433L14.5099 40.2345C13.4938 39.6492 13.3448 39.0744 13.2563 37.9621L11.9863 21.9585L11.4247 22.2827C10.3805 22.8856 9.82437 23.6489 9.77051 24.3842H9.76172V41.9777C9.76172 43.1356 9.87493 43.7368 10.9372 44.3496L48.8478 66.2373C50.5888 67.2424 53.63 67.1166 55.6403 65.9559L92.5754 44.6315C93.885 43.8753 94.1933 42.9191 94.1708 41.9777V24.7332C94.401 23.9336 94.0416 23.1307 93.0623 22.5652Z" fill="black"/>
    <path opacity="0.1" d="M93.0843 22.5801C93.1013 22.8032 93.0782 23.0302 93.0057 23.2577L92.2308 40.4841C92.2111 41.4057 91.8753 42.3399 90.5965 43.0774L55.3831 63.383C53.5124 64.4617 50.6893 64.5788 49.0698 63.6451L12.9266 42.8032C11.889 42.2047 11.755 41.6184 11.7038 40.4846L10.9119 22.9027H10.9207C10.9235 22.7994 10.9372 22.696 10.9581 22.5922C10.2173 23.1362 9.81557 23.7704 9.77051 24.3859H9.76172V41.9794C9.76172 43.1373 9.87493 43.7385 10.9372 44.3513L48.8478 66.239C50.5888 67.2441 53.63 67.1183 55.6403 65.9576L92.5754 44.6332C93.885 43.877 94.1933 42.9208 94.1708 41.9794V24.7349C94.3988 23.9402 94.0455 23.1445 93.0843 22.5801Z" fill="black"/>
    <path d="M92.5744 26.488L55.6392 47.8124C53.629 48.9731 50.5877 49.0989 48.8467 48.0938L10.9362 26.2061C9.19517 25.2009 9.41335 23.4451 11.4236 22.2845L48.3587 0.960032C50.369 -0.20063 53.4102 -0.326483 55.1512 0.678655L93.0618 22.5664C94.8034 23.5715 94.5846 25.3273 92.5744 26.488Z" fill="#F0F7F5"/>
    <path d="M92.5751 26.4876C89.2641 28.5429 85.9173 30.5367 82.5892 32.5629L72.5455 38.5388C69.2053 40.5435 65.8255 42.4807 62.4644 44.4498L57.4167 47.3927L56.155 48.1285C55.9538 48.25 55.717 48.3764 55.4812 48.5C55.2416 48.6088 55.002 48.7182 54.7552 48.8034C53.7721 49.1606 52.7389 49.3211 51.7003 49.3211C50.6655 49.2925 49.601 49.1298 48.6255 48.5846L46.0953 47.1118L41.0477 44.1684C37.6871 42.1983 34.3063 40.2638 30.9661 38.2579L20.9224 32.2821C17.5948 30.2553 14.248 28.261 10.9375 26.2051C14.3733 28.0444 17.7734 29.9459 21.1928 31.8138L31.3898 37.5237C34.7965 39.4131 38.1625 41.3745 41.5489 43.2996L46.6213 46.199L49.1531 47.6438C49.8889 48.0543 50.8122 48.2011 51.7124 48.2192C52.6197 48.2269 53.5413 48.0917 54.392 47.7894C54.6069 47.7185 54.8102 47.6257 55.0157 47.5361C55.2114 47.4339 55.4059 47.335 55.623 47.2064L56.8914 46.4815L61.9638 43.5815C65.3496 41.6553 68.7167 39.6967 72.1234 37.8068L82.3204 32.0969C85.7398 30.2289 89.1399 28.328 92.5751 26.4876Z" fill="white"/>
    <path d="M49.6136 3.63685L16.0583 23.0098C14.741 23.7704 14.741 25.0036 16.0583 25.7636L49.6136 45.1366C50.9309 45.8972 53.0665 45.8972 54.3838 45.1366L87.9391 25.7636C89.2564 25.003 89.2564 23.7698 87.9391 23.0098L54.3838 3.63685C53.067 2.87626 50.9314 2.87626 49.6136 3.63685ZM82.9623 23.7379C83.5833 24.0968 83.5833 24.6782 82.9623 25.0366L53.1236 42.264C52.5026 42.6229 51.4953 42.6229 50.8743 42.264L21.0356 25.0366C20.4146 24.6777 20.4146 24.0963 21.0356 23.7379L50.8743 6.51048C51.4953 6.15162 52.5026 6.15162 53.1236 6.51048L82.9623 23.7379Z" fill="#A3A3A3"/>
    <path opacity="0.4" d="M48.7142 2.8416L14.6834 22.4893C12.9831 23.4708 12.9831 25.0629 14.6834 26.0444L23.8077 31.3124C33.1167 30.5453 42.5932 27.8805 50.3227 23.4181C58.0522 18.9557 62.6679 13.4843 63.9962 8.10965L54.8719 2.8416C53.1716 1.86009 50.415 1.86009 48.7142 2.8416Z" fill="white"/>
    <path d="M48.6813 35.9467L46.2826 34.5618L46.6978 28.3295C46.7132 27.788 46.6978 27.3175 46.6516 26.918C46.6106 26.5155 46.4979 26.1634 46.3134 25.8615C46.1237 25.5567 45.8213 25.2844 45.4062 25.0447C44.9449 24.7784 44.4426 24.6097 43.8993 24.5387C43.3508 24.4647 42.805 24.481 42.2617 24.5875C41.7133 24.6911 41.2084 24.8761 40.7471 25.1424C40.2653 25.4206 39.9424 25.7195 39.7784 26.0391C39.6144 26.3587 39.6169 26.6797 39.7861 27.0023C39.9552 27.3249 40.2909 27.6312 40.7932 27.9212L37.6334 29.7456C36.6032 29.1507 35.942 28.4997 35.6498 27.7924C35.3577 27.0852 35.4243 26.369 35.8497 25.644C36.2751 24.919 37.0363 24.2398 38.1331 23.6065C39.2607 22.9555 40.4421 22.5042 41.6774 22.2527C42.9126 21.9952 44.1145 21.9345 45.2831 22.0707C46.4518 22.2068 47.4897 22.5368 48.3969 23.0605C48.9914 23.4038 49.4604 23.8107 49.8038 24.2812C50.1523 24.7488 50.383 25.3584 50.4958 26.1101C50.6034 26.8588 50.6085 27.8294 50.5111 29.022L50.465 31.6499L50.5726 31.712L57.1845 27.8945L59.9061 29.4659L48.6813 35.9467ZM58.9739 26.8081L56.3522 25.2944L52.5696 15.5199L54.83 14.2149L58.4588 16.3101L57.1211 17.0824L59.5352 23.2614L59.6582 23.3324L68.9994 17.9391L71.6672 19.4794L58.9739 26.8081ZM69.2992 24.0427L65.7319 21.983L64.6325 21.2772L53.6152 14.9162L56.7367 13.114L72.4821 22.2049L69.2992 24.0427Z" fill="#A3A3A3"/>
</svg>
