<svg width="25" height="24" viewBox="0 0 25 24" fill="none" xmlns="http://www.w3.org/2000/svg">
    <path fill-rule="evenodd" clip-rule="evenodd" d="M4.15114 7.87868C3.27246 8.75736 3.27246 10.1716 3.27246 13V14C3.27246 17.7712 3.27246 19.6569 4.44403 20.8284C5.61561 22 7.50122 22 11.2725 22H13.2725C17.0437 22 18.9293 22 20.1009 20.8284C21.2725 19.6569 21.2725 17.7712 21.2725 14V13C21.2725 10.1716 21.2725 8.75736 20.3938 7.87868C19.5151 7 18.1009 7 15.2725 7H9.27246C6.44403 7 5.02982 7 4.15114 7.87868ZM12.2725 15C12.8247 15 13.2725 14.5523 13.2725 14C13.2725 13.4477 12.8247 13 12.2725 13C11.7202 13 11.2725 13.4477 11.2725 14C11.2725 14.5523 11.7202 15 12.2725 15ZM15.2725 14C15.2725 15.3062 14.4377 16.4175 13.2725 16.8293V19H11.2725V16.8293C10.1073 16.4175 9.27246 15.3062 9.27246 14C9.27246 12.3431 10.6156 11 12.2725 11C13.9293 11 15.2725 12.3431 15.2725 14Z" fill="#FFF9F9"/>
    <path d="M16.7725 8.00079V8.00079C17.0768 6.17457 16.2832 4.33939 14.7441 3.31033L14.3704 3.06044C12.3458 1.70676 9.66616 1.87361 7.82515 3.46797L6.94238 4.23247" stroke="#FFF9F9" stroke-width="2" stroke-linecap="round"/>
</svg>
