<svg width="80" height="25" viewBox="0 0 80 25" fill="none" xmlns="http://www.w3.org/2000/svg">
<path d="M31.64 15.2C31.64 15.848 31.524 16.312 31.292 16.592C31.06 16.864 30.704 17 30.224 17C29.76 17 29.42 16.876 29.204 16.628C28.988 16.372 28.876 15.924 28.868 15.284L28.856 13.34L27.008 11.18C26.672 10.796 26.504 10.464 26.504 10.184C26.504 9.744 26.672 9.396 27.008 9.14C27.328 8.9 27.612 8.78 27.86 8.78C28.204 8.78 28.512 8.936 28.784 9.248L30.248 10.952L31.472 9.524C31.88 9.036 32.316 8.792 32.78 8.792C33.124 8.792 33.392 8.888 33.584 9.08C33.912 9.408 34.076 9.724 34.076 10.028C34.076 10.196 34.02 10.376 33.908 10.568C33.796 10.752 33.616 10.992 33.368 11.288L31.64 13.4V15.2ZM38.8748 15.32C39.1468 15.32 39.3788 15.2 39.5708 14.96C39.7708 14.72 39.9108 14.424 39.9908 14.072C40.0788 13.72 40.1228 13.344 40.1228 12.944C40.1228 12.536 40.0788 12.152 39.9908 11.792C39.9028 11.424 39.7588 11.112 39.5588 10.856C39.3668 10.6 39.1388 10.472 38.8748 10.472C38.6188 10.472 38.3948 10.6 38.2028 10.856C38.0108 11.112 37.8668 11.424 37.7708 11.792C37.6748 12.16 37.6268 12.544 37.6268 12.944C37.6268 13.344 37.6708 13.72 37.7588 14.072C37.8548 14.424 37.9988 14.72 38.1908 14.96C38.3908 15.2 38.6188 15.32 38.8748 15.32ZM40.9988 16.604C40.3668 16.916 39.6548 17.072 38.8628 17.072C38.0788 17.072 37.3708 16.916 36.7388 16.604C36.1148 16.284 35.6148 15.808 35.2388 15.176C34.8628 14.544 34.6748 13.8 34.6748 12.944C34.6748 11.648 35.0628 10.62 35.8388 9.86C36.6228 9.092 37.6348 8.708 38.8748 8.708C40.1148 8.708 41.1268 9.092 41.9108 9.86C42.6948 10.62 43.0868 11.648 43.0868 12.944C43.0868 13.8 42.8948 14.544 42.5108 15.176C42.1348 15.808 41.6308 16.284 40.9988 16.604ZM51.795 10.22V13.796C51.795 14.964 51.511 15.804 50.943 16.316C50.383 16.82 49.435 17.072 48.099 17.072C46.827 17.072 45.891 16.8 45.291 16.256C44.699 15.712 44.403 14.892 44.403 13.796V10.22C44.403 9.796 44.527 9.452 44.775 9.188C45.031 8.916 45.351 8.78 45.735 8.78C46.207 8.78 46.563 8.868 46.803 9.044C47.051 9.22 47.175 9.576 47.175 10.112V14.024C47.183 14.28 47.223 14.484 47.295 14.636C47.375 14.788 47.479 14.896 47.607 14.96C47.735 15.016 47.899 15.044 48.099 15.044C48.299 15.044 48.463 15.02 48.591 14.972C48.719 14.924 48.811 14.848 48.867 14.744C48.931 14.64 48.971 14.536 48.987 14.432C49.011 14.328 49.023 14.192 49.023 14.024V10.1C49.023 9.828 49.055 9.6 49.119 9.416C49.191 9.232 49.295 9.096 49.431 9.008C49.575 8.92 49.719 8.86 49.863 8.828C50.015 8.796 50.195 8.78 50.403 8.78C50.867 8.78 51.215 8.892 51.447 9.116C51.679 9.34 51.795 9.708 51.795 10.22ZM58.2307 11.036C58.2307 10.868 58.1587 10.724 58.0147 10.604C57.8787 10.484 57.7147 10.424 57.5227 10.424C57.1387 10.424 56.8227 10.644 56.5747 11.084C56.3267 11.516 56.2027 12.008 56.2027 12.56C56.2027 12.984 56.2827 13.368 56.4427 13.712C56.6027 14.048 56.8347 14.316 57.1387 14.516C57.4427 14.716 57.7947 14.816 58.1947 14.816C58.4907 14.816 58.7747 14.76 59.0467 14.648C59.3187 14.528 59.5387 14.4 59.7067 14.264C59.8747 14.12 60.0467 13.992 60.2227 13.88C60.4067 13.76 60.5667 13.7 60.7027 13.7C60.8787 13.7 61.0307 13.772 61.1587 13.916C61.2867 14.052 61.3507 14.196 61.3507 14.348C61.3507 14.516 61.2987 14.712 61.1947 14.936C61.0987 15.16 60.9427 15.4 60.7267 15.656C60.5107 15.904 60.2587 16.136 59.9707 16.352C59.6827 16.56 59.3227 16.736 58.8907 16.88C58.4667 17.016 58.0187 17.084 57.5467 17.084C56.9227 17.084 56.3427 16.992 55.8067 16.808C55.2787 16.616 54.8187 16.348 54.4267 16.004C54.0347 15.652 53.7267 15.212 53.5027 14.684C53.2787 14.156 53.1667 13.564 53.1667 12.908C53.1667 11.612 53.5547 10.588 54.3307 9.836C55.1067 9.084 56.1227 8.708 57.3787 8.708C58.0187 8.708 58.6107 8.816 59.1547 9.032C59.6987 9.248 60.1307 9.548 60.4507 9.932C60.7707 10.316 60.9307 10.736 60.9307 11.192C60.9307 11.72 60.7547 12.2 60.4027 12.632C60.0507 13.056 59.5947 13.268 59.0347 13.268C58.7147 13.268 58.4267 13.18 58.1707 13.004C57.9147 12.828 57.7867 12.576 57.7867 12.248C57.7867 12.096 57.8587 11.884 58.0027 11.612C58.1547 11.34 58.2307 11.148 58.2307 11.036ZM66.2491 10.736C65.9051 10.736 65.6491 10.836 65.4811 11.036C65.3211 11.236 65.2411 11.592 65.2411 12.104V13.52H67.2331V12.08C67.2331 11.744 67.1931 11.476 67.1131 11.276C67.0331 11.068 66.9211 10.928 66.7771 10.856C66.6411 10.776 66.4651 10.736 66.2491 10.736ZM67.2331 15.176H65.2411V15.812C65.2411 16.22 65.1331 16.52 64.9171 16.712C64.7011 16.904 64.3291 17 63.8011 17C63.5771 17 63.3931 16.968 63.2491 16.904C63.1051 16.84 62.9771 16.732 62.8651 16.58C62.7611 16.428 62.6811 16.208 62.6251 15.92C62.5771 15.624 62.5371 15.272 62.5051 14.864C62.4811 14.448 62.4691 13.924 62.4691 13.292C62.4691 12.74 62.5251 12.236 62.6371 11.78C62.7571 11.316 62.9131 10.924 63.1051 10.604C63.3051 10.284 63.5291 10.004 63.7771 9.764C64.0251 9.516 64.2931 9.324 64.5811 9.188C64.8771 9.052 65.1611 8.952 65.4331 8.888C65.7131 8.816 65.9931 8.78 66.2731 8.78C66.6091 8.78 66.9411 8.828 67.2691 8.924C67.5971 9.012 67.9291 9.168 68.2651 9.392C68.6011 9.616 68.8931 9.896 69.1411 10.232C69.3971 10.56 69.6051 10.988 69.7651 11.516C69.9251 12.044 70.0051 12.636 70.0051 13.292C70.0051 14.348 69.9651 15.132 69.8851 15.644C69.8131 16.148 69.6851 16.5 69.5011 16.7C69.3251 16.9 69.0491 17 68.6731 17C68.1451 17 67.7731 16.904 67.5571 16.712C67.3411 16.52 67.2331 16.22 67.2331 15.812V15.176ZM78.9681 15.86C78.9681 16.212 78.8641 16.492 78.6561 16.7C78.4481 16.9 78.1441 17 77.7441 17C77.6401 17 77.5361 16.988 77.4321 16.964C77.3281 16.94 77.2161 16.896 77.0961 16.832C76.9841 16.768 76.8841 16.708 76.7961 16.652C76.7081 16.596 76.5961 16.512 76.4601 16.4C76.3321 16.28 76.2281 16.188 76.1481 16.124C76.0761 16.052 75.9601 15.94 75.8001 15.788C75.6401 15.636 75.5241 15.524 75.4521 15.452L73.2561 13.376V15.98C73.2561 16.372 73.1801 16.64 73.0281 16.784C72.8841 16.928 72.6521 17 72.3321 17C71.9801 17 71.7201 16.92 71.5521 16.76C71.3841 16.6 71.3001 16.332 71.3001 15.956V10.16C71.3001 9.704 71.4161 9.36 71.6481 9.128C71.8801 8.896 72.2121 8.78 72.6441 8.78C72.9401 8.78 73.1761 8.828 73.3521 8.924C73.5361 9.012 73.7521 9.176 74.0001 9.416L77.0361 12.44V9.824C77.0361 9.48 77.1201 9.224 77.2881 9.056C77.4641 8.88 77.7001 8.792 77.9961 8.792C78.3401 8.792 78.5881 8.872 78.7401 9.032C78.8921 9.192 78.9681 9.452 78.9681 9.812V15.86Z" fill="#333333"/>
<path d="M3.18652 10.1221V23.7996C8.16664 23.787 12.2004 19.5047 12.2004 14.2233C12.2004 12.7556 11.8883 11.3651 11.3318 10.1221H3.18652Z" fill="#000EDD"/>
<path opacity="0.3" d="M11.3317 10.1221C11.8887 11.3651 12.2004 12.7556 12.2004 14.2233C12.2004 15.7739 11.852 17.2381 11.2344 18.5339C11.3592 18.5396 11.4849 18.5427 11.6111 18.5427C16.2638 18.5427 20.0357 14.7726 20.0357 10.1221H11.3317Z" fill="#00A7FF"/>
<path d="M11.2139 18.5427C11.5312 17.8878 11.7787 17.1893 11.9468 16.4576C11.8355 16.4633 11.7237 16.4663 11.6111 16.4663C8.09156 16.4663 5.23811 13.626 5.23811 10.1221H3.18652V10.9833C3.60688 15.1055 7.01033 18.3494 11.2139 18.5427Z" fill="#00A7FF"/>
<path d="M11.6113 16.4664C11.7239 16.4664 11.8357 16.4633 11.947 16.4576C11.9465 16.4585 11.9465 16.4594 11.9461 16.4607C11.9478 16.4603 11.95 16.4598 11.9518 16.4598C11.9526 16.455 11.954 16.4507 11.9553 16.4459C8.38463 16.3651 5.51546 13.5754 5.51546 10.1444C5.51546 10.137 5.5159 10.13 5.5159 10.1226H5.23828C5.23828 13.626 8.09173 16.4664 11.6113 16.4664Z" fill="#00A7FF" stroke="#00A7FF" stroke-miterlimit="10"/>
<path d="M5.53144 10.1221H3.18652V10.9868C3.20879 11.1805 3.2389 11.3725 3.27601 11.5619H5.71827C5.59605 11.0994 5.53144 10.6173 5.53144 10.1221Z" fill="#0078FF"/>
<path d="M12.0479 3.76855V16.433C15.4138 16.2027 18.0717 13.4557 18.0717 10.101C18.0717 6.7463 15.4138 3.99892 12.0479 3.76855Z" fill="#FF9409"/>
<path d="M18.0712 10.0786H12.0479V11.562H17.8997C18.0119 11.093 18.0717 10.6035 18.0717 10.1004C18.0717 10.093 18.0712 10.086 18.0712 10.0786Z" fill="#FF6E09"/>
<path d="M12.0479 10.0783H20.0359C20.0359 5.47665 16.4784 1.73276 12.0479 1.6167V10.0783Z" fill="#FFCF21"/>
<path d="M15.4961 6.41384H16.837C16.4616 5.89464 16.009 5.43478 15.4961 5.05127V6.41384Z" fill="#031500"/>
<path d="M12.0476 1.61475C7.15176 1.62565 3.18652 5.42059 3.18652 10.1003C3.18652 10.1078 3.18696 10.1147 3.18696 10.1222H5.51573C5.51573 10.1296 5.51529 10.1366 5.51529 10.144C5.51529 13.5729 8.38097 16.3617 11.9485 16.4455C11.9857 16.281 12.0184 16.1152 12.0472 15.9472V1.61475H12.0476Z" fill="#FF5C00"/>
<path d="M8.1405 8.81317C9.30972 8.81317 10.2576 7.86578 10.2576 6.69711C10.2576 5.52845 9.30972 4.58105 8.1405 4.58105C6.97128 4.58105 6.02344 5.52845 6.02344 6.69711C6.02344 7.86578 6.97128 8.81317 8.1405 8.81317Z" fill="white"/>
<path d="M8.76101 5.82666C8.70121 6.0867 8.43669 6.28259 8.11891 6.28259C7.81248 6.28259 7.55581 6.09978 7.48466 5.85328C7.23323 6.04874 7.07129 6.35415 7.07129 6.69708C7.07129 7.28739 7.55014 7.76601 8.14073 7.76601C8.73133 7.76601 9.21018 7.28739 9.21018 6.69708C9.21018 6.338 9.03296 6.02038 8.76101 5.82666Z" fill="black"/>
<path opacity="0.3" d="M20.0356 10.0786H18.0713V10.1222H20.0356V10.0786Z" fill="#00A7FF"/>
<path d="M12.0479 16.4322V15.9414C12.0191 16.1089 11.9859 16.2752 11.9492 16.4397C11.9514 16.4397 11.9536 16.4397 11.9558 16.4397C11.9863 16.4405 12.0479 16.4322 12.0479 16.4322Z" fill="#FF9409"/>
<path d="M11.9503 16.4414L11.877 16.4432L11.9494 16.4453L11.9503 16.4414Z" fill="#15FFC4"/>
<path d="M3.18652 11.0259V16.0106C4.75359 18.2986 7.20152 19.936 10.0419 20.4347C10.5063 19.8575 10.9075 19.2209 11.2335 18.5377C7.02736 18.3941 3.60775 15.1537 3.18652 11.0259Z" fill="#000EA0"/>
</svg>
