<svg width="104" height="62" viewBox="0 0 104 62" fill="none" xmlns="http://www.w3.org/2000/svg">
    <path opacity="0.1" d="M101.953 34.2032L56.4811 60.8035C54.0059 62.2512 50.2624 62.4088 48.1191 61.1548L1.44697 33.8519C-0.696302 32.5979 -0.427569 30.4079 2.04708 28.9601L47.5184 2.35991C49.9936 0.912159 53.7372 0.754578 55.8805 2.00855L102.553 29.3115C104.696 30.5649 104.428 32.7555 101.953 34.2032Z" fill="#FFBE00"/>
    <path opacity="0.1" d="M95.8668 33.8847L55.9344 57.2447C53.7609 58.516 50.4729 58.6541 48.5907 57.5532L7.6048 33.5768C5.72257 32.4759 5.95833 30.5521 8.13182 29.2808L48.0642 5.92079C50.2377 4.64955 53.5257 4.51145 55.4079 5.6123L96.3944 29.5888C98.276 30.6902 98.0403 32.6134 95.8668 33.8847Z" fill="#FFBE00"/>
    <path d="M93.5778 25.6819C93.8087 24.8706 93.4492 24.0571 92.4699 23.4841L54.5594 1.30678C52.8184 0.288341 49.7771 0.415851 47.7669 1.59187L10.8318 23.1985C10.1973 23.5696 9.65625 24.4029 9.65625 25.1379L9.65625 29.4634C9.65625 30.6366 9.76946 31.2458 10.8318 31.8667L48.7423 54.0441C50.4833 55.0625 53.5245 54.935 55.5348 53.759L92.4699 32.1524C93.7801 31.3862 94.0878 30.4173 94.0653 29.4634L93.5778 25.6819Z" fill="#FFBE00"/>
    <path d="M49.248 54.2813C51.0215 55.0213 53.683 54.8336 55.5135 53.7723V0.95561L55.0475 0.682761C53.5731 -0.179765 51.1715 -0.211499 49.248 0.510707V54.2813Z" fill="#FFBE00"/>
    <path d="M92.9572 22.8615L83.5961 17.3854L74.235 11.9093L69.5544 9.17122L64.8738 6.43316L60.1933 3.69509L55.5127 0.957031V53.7741C55.5193 53.7702 55.5275 53.7675 55.5341 53.7636L92.4692 32.1569C93.7794 31.3907 94.1316 30.5861 94.0646 29.468V25.0593C94.296 24.248 93.9365 23.4345 92.9572 22.8615Z" fill="#FFBE00"/>
    <path opacity="0.1" d="M90.847 21.6074L90.5766 25.3977C90.5255 26.3137 90.1716 27.2409 88.9197 27.972L55.0835 47.7232C53.3194 48.7528 50.6623 48.8642 49.1357 47.9732L14.4054 27.6997C13.3893 27.1067 13.2403 26.5242 13.1519 25.3972L12.7174 22.0702C10.828 23.1251 9.65723 25.1196 9.65723 27.2835V29.4659C9.65723 30.6392 9.77044 31.2483 10.8327 31.8692L48.7433 54.0466C50.4843 55.065 53.5255 54.9375 55.5358 53.7615L92.4709 32.1549C93.7805 31.3887 94.0888 30.4198 94.0663 29.4659V24.2415C94.1141 23.4228 90.847 21.6074 90.847 21.6074Z" fill="#FFBE00"/>
    <path opacity="0.1" d="M91.971 22.2832L91.7435 27.6332C91.7238 28.567 91.388 29.5136 90.1091 30.2609L54.8958 50.8351C53.0251 51.9282 50.202 52.0468 48.5825 51.1007L12.4393 29.983C11.4017 29.3766 11.2677 28.7825 11.2165 27.6338L10.8904 23.2087C9.89632 23.7342 9.27441 24.7664 9.27441 25.8909V29.1484C9.27441 30.3216 9.38762 30.9307 10.4499 31.5516L48.3605 53.729C50.1015 54.7474 53.1427 54.6199 55.153 53.4439L92.0881 31.8373C93.3977 31.0711 93.706 30.1022 93.6835 29.1484L93.8329 23.6714L93.6924 23.4578L93.4816 23.2443L93.2708 23.0663L93.0249 22.9239L91.971 22.2832Z" fill="#FFBE00"/>
    <path d="M92.4738 26.8385L55.5387 48.4451C53.5284 49.6211 50.4871 49.7486 48.7462 48.7302L10.8356 26.5529C9.09459 25.5344 9.31276 23.7554 11.323 22.5793L48.2581 0.972736C50.2684 -0.203285 53.3097 -0.330803 55.0507 0.687635L92.9612 22.865C94.7028 23.8834 94.484 25.6625 92.4738 26.8385Z" fill="#F0F7F5"/>
    <path d="M49.513 3.68541L15.9577 23.3147C14.6404 24.0854 14.6404 25.3349 15.9577 26.105L49.513 45.7343C50.8303 46.5049 52.9659 46.5049 54.2832 45.7343L87.8385 26.105C89.1558 25.3343 89.1558 24.0848 87.8385 23.3147L54.2832 3.68541C52.9664 2.91476 50.8309 2.91476 49.513 3.68541ZM82.8617 24.0525C83.4827 24.4161 83.4827 25.0052 82.8617 25.3683L53.023 42.8237C52.402 43.1873 51.3947 43.1873 50.7737 42.8237L20.935 25.3683C20.314 25.0047 20.314 24.4156 20.935 24.0525L50.7737 6.59706C51.3947 6.23346 52.402 6.23346 53.023 6.59706L82.8617 24.0525Z" fill="#FFBE00"/>
    <path opacity="0.4" d="M48.6136 2.88064L14.5829 22.7884C12.8825 23.7828 12.8825 25.396 14.5829 26.3905L23.7071 31.7282C33.0161 30.9509 42.4926 28.2508 50.2221 23.7294C57.9516 19.208 62.5673 13.6642 63.8956 8.2184L54.7713 2.88064C53.071 1.88614 50.3144 1.88614 48.6136 2.88064Z" fill="white"/>
    <path d="M39.7861 22.9007L55.5315 31.9917L52.2025 33.9137L39.6169 26.6472L39.5247 26.7005L38.1792 30.0874L35.227 28.3828L36.657 24.7074L39.7861 22.9007ZM65.532 26.4663C64.717 26.9309 63.7996 27.3038 62.7796 27.5849C61.7647 27.8631 60.6602 28.0007 59.466 27.9977C58.2717 27.9948 57.0057 27.8083 55.668 27.4384C54.3354 27.0656 52.9489 26.4633 51.5087 25.6318C50.1914 24.8653 49.1612 24.0959 48.418 23.3236C47.6748 22.5453 47.2187 21.7847 47.0495 21.0419C46.8855 20.2962 47.0059 19.5875 47.4109 18.9157C47.8106 18.241 48.4975 17.6225 49.4713 17.0602C50.522 16.4536 51.6548 16.0363 52.8695 15.8085C54.0791 15.5776 55.2759 15.5229 56.4599 15.6442C57.649 15.7626 58.7279 16.0422 59.6966 16.4832L56.4138 18.3786C55.7372 18.1359 55.0376 18.0427 54.3149 18.0989C53.5922 18.1552 52.9284 18.3579 52.3236 18.7071C51.2985 19.2989 50.9654 20.0062 51.3242 20.8289C51.6881 21.6486 52.6312 22.5038 54.1534 23.3946L54.2611 23.3324C54.0304 22.927 53.951 22.5142 54.0227 22.094C54.0945 21.6678 54.2995 21.2565 54.6378 20.86C54.9761 20.4575 55.4322 20.0905 56.0063 19.7591C56.9391 19.2205 57.9898 18.8684 59.1584 18.7026C60.3219 18.534 61.4957 18.5488 62.6796 18.747C63.8636 18.9453 64.9477 19.3285 65.9318 19.8967C66.9979 20.5122 67.6975 21.2032 68.0306 21.9697C68.3689 22.7332 68.3305 23.507 67.9153 24.2912C67.5002 25.0695 66.7057 25.7946 65.532 26.4663ZM62.9026 24.966C63.4152 24.67 63.7509 24.3341 63.9098 23.9583C64.0686 23.5825 64.0533 23.2067 63.8636 22.8308C63.674 22.455 63.3178 22.1162 62.795 21.8143C62.2722 21.5125 61.6879 21.3083 61.0421 21.2017C60.4014 21.0923 59.7581 21.0819 59.1123 21.1707C58.4665 21.2595 57.8873 21.4518 57.3748 21.7477C56.9904 21.9697 56.7059 22.2168 56.5214 22.489C56.342 22.7583 56.2574 23.038 56.2677 23.328C56.2831 23.615 56.3907 23.8962 56.5906 24.1714C56.7854 24.4436 57.0724 24.6893 57.4517 24.9082C57.9591 25.2012 58.5383 25.4024 59.1892 25.5119C59.8453 25.6185 60.4988 25.6288 61.1497 25.543C61.8058 25.4542 62.3901 25.2619 62.9026 24.966Z" fill="#FFBE00"/>
</svg>
