<svg width="104" height="74" viewBox="0 0 104 74" fill="none" xmlns="http://www.w3.org/2000/svg">
    <path opacity="0.1" d="M101.953 45.6721L56.4812 71.925C54.006 73.3538 50.2624 73.5093 48.1191 72.2717L1.44697 45.3253C-0.696302 44.0877 -0.42757 41.9263 2.04708 40.4975L47.5184 14.2447C49.9936 12.8158 53.7372 12.6603 55.8805 13.8979L102.553 40.8443C104.696 42.0813 104.428 44.2433 101.953 45.6721Z" fill="black"/>
    <path opacity="0.1" d="M95.8668 45.3554L55.9344 68.4103C53.7609 69.665 50.4729 69.8013 48.5907 68.7148L7.6048 45.0515C5.72257 43.965 5.95833 42.0663 8.13182 40.8116L48.0642 17.7567C50.2377 16.502 53.5257 16.3657 55.4079 17.4522L96.3944 41.1155C98.276 42.2026 98.0403 44.1007 95.8668 45.3554Z" fill="black"/>
    <path d="M94.1698 24.7355C94.4006 23.9348 94.0412 23.1319 93.0619 22.5664L55.1513 0.678658C53.4103 -0.326479 50.3691 -0.200635 48.3588 0.960027L11.4237 22.2844C10.3795 22.8873 9.82339 23.6506 9.76953 24.3859H9.76074V41.9794C9.76074 43.1373 9.87395 43.7386 10.9362 44.3513L48.8468 66.239C50.5878 67.2442 53.629 67.1183 55.6393 65.9576L92.5744 44.6332C93.8846 43.8771 94.1923 42.9208 94.1698 41.9794V24.7355Z" fill="#A3A3A3"/>
    <path d="M49.3516 66.4701C51.125 67.2004 53.7865 67.0152 55.6171 65.9678V0.947036L55.151 0.677751C53.6766 -0.173511 51.275 -0.204831 49.3516 0.507943V66.4701Z" fill="#8C8C8C"/>
    <path d="M93.0607 22.5657L55.6162 0.947266V65.968C55.6228 65.9641 55.631 65.9614 55.6376 65.9575L92.5728 44.6331C93.8829 43.8769 94.2352 43.0828 94.1681 41.9793V24.7348C94.3995 23.9341 94.0401 23.1312 93.0607 22.5657Z" fill="#939393"/>
    <path opacity="0.1" d="M93.0623 22.5652L91.9517 21.9238L90.6811 37.9626C90.63 38.8666 90.2761 39.7817 89.0242 40.5032L55.188 59.9965C53.4239 61.0127 50.7668 61.1226 49.2402 60.2433L14.5099 40.2345C13.4938 39.6492 13.3448 39.0744 13.2563 37.9621L11.9863 21.9585L11.4247 22.2827C10.3805 22.8856 9.82437 23.6489 9.77051 24.3842H9.76172V41.9777C9.76172 43.1356 9.87493 43.7368 10.9372 44.3496L48.8478 66.2373C50.5888 67.2424 53.63 67.1166 55.6403 65.9559L92.5754 44.6315C93.885 43.8753 94.1933 42.9191 94.1708 41.9777V24.7332C94.401 23.9336 94.0416 23.1307 93.0623 22.5652Z" fill="black"/>
    <path opacity="0.1" d="M93.0843 22.5801C93.1013 22.8032 93.0782 23.0302 93.0057 23.2577L92.2308 40.4841C92.2111 41.4057 91.8753 42.3399 90.5965 43.0774L55.3831 63.383C53.5124 64.4617 50.6893 64.5788 49.0698 63.6451L12.9266 42.8032C11.889 42.2047 11.755 41.6184 11.7038 40.4846L10.9119 22.9027H10.9207C10.9235 22.7994 10.9372 22.696 10.9581 22.5922C10.2173 23.1362 9.81557 23.7704 9.77051 24.3859H9.76172V41.9794C9.76172 43.1373 9.87493 43.7385 10.9372 44.3513L48.8478 66.239C50.5888 67.2441 53.63 67.1183 55.6403 65.9576L92.5754 44.6332C93.885 43.877 94.1933 42.9208 94.1708 41.9794V24.7349C94.3988 23.9402 94.0455 23.1445 93.0843 22.5801Z" fill="black"/>
    <path d="M92.5744 26.488L55.6392 47.8124C53.629 48.9731 50.5877 49.0989 48.8467 48.0938L10.9362 26.2061C9.19517 25.2009 9.41335 23.4451 11.4236 22.2845L48.3587 0.960032C50.369 -0.20063 53.4102 -0.326483 55.1512 0.678655L93.0618 22.5664C94.8034 23.5715 94.5846 25.3273 92.5744 26.488Z" fill="#F0F7F5"/>
    <path d="M92.5751 26.4876C89.2641 28.5429 85.9173 30.5367 82.5892 32.5629L72.5455 38.5388C69.2053 40.5435 65.8255 42.4807 62.4644 44.4498L57.4167 47.3927L56.155 48.1285C55.9538 48.25 55.717 48.3764 55.4812 48.5C55.2416 48.6088 55.002 48.7182 54.7552 48.8034C53.7721 49.1606 52.7389 49.3211 51.7003 49.3211C50.6655 49.2925 49.601 49.1298 48.6255 48.5846L46.0953 47.1118L41.0477 44.1684C37.6871 42.1983 34.3063 40.2638 30.9661 38.2579L20.9224 32.2821C17.5948 30.2553 14.248 28.261 10.9375 26.2051C14.3733 28.0444 17.7734 29.9459 21.1928 31.8138L31.3898 37.5237C34.7965 39.4131 38.1625 41.3745 41.5489 43.2996L46.6213 46.199L49.1531 47.6438C49.8889 48.0543 50.8122 48.2011 51.7124 48.2192C52.6197 48.2269 53.5413 48.0917 54.392 47.7894C54.6069 47.7185 54.8102 47.6257 55.0157 47.5361C55.2114 47.4339 55.4059 47.335 55.623 47.2064L56.8914 46.4815L61.9638 43.5815C65.3496 41.6553 68.7167 39.6967 72.1234 37.8068L82.3204 32.0969C85.7398 30.2289 89.1399 28.328 92.5751 26.4876Z" fill="white"/>
    <path d="M49.6136 3.63685L16.0583 23.0098C14.741 23.7704 14.741 25.0036 16.0583 25.7636L49.6136 45.1366C50.9309 45.8972 53.0665 45.8972 54.3838 45.1366L87.9391 25.7636C89.2564 25.003 89.2564 23.7698 87.9391 23.0098L54.3838 3.63685C53.067 2.87626 50.9314 2.87626 49.6136 3.63685ZM82.9623 23.7379C83.5833 24.0968 83.5833 24.6782 82.9623 25.0366L53.1236 42.264C52.5026 42.6229 51.4953 42.6229 50.8743 42.264L21.0356 25.0366C20.4146 24.6777 20.4146 24.0963 21.0356 23.7379L50.8743 6.51048C51.4953 6.15162 52.5026 6.15162 53.1236 6.51048L82.9623 23.7379Z" fill="#A3A3A3"/>
    <path opacity="0.4" d="M48.7142 2.8416L14.6834 22.4893C12.9831 23.4708 12.9831 25.0629 14.6834 26.0444L23.8077 31.3124C33.1167 30.5453 42.5932 27.8805 50.3227 23.4181C58.0522 18.9557 62.6679 13.4843 63.9962 8.10965L54.8719 2.8416C53.1716 1.86009 50.415 1.86009 48.7142 2.8416Z" fill="white"/>
    <path d="M39.7861 22.9007L55.5315 31.9917L52.2025 33.9137L39.6169 26.6472L39.5247 26.7005L38.1792 30.0874L35.227 28.3828L36.657 24.7074L39.7861 22.9007ZM65.3628 26.564C64.1788 27.2476 62.9334 27.7447 61.6264 28.0554C60.3194 28.3602 59.0687 28.4697 57.8745 28.3839C56.6803 28.2981 55.6577 28.0096 54.8069 27.5183C54.1509 27.1395 53.6973 26.706 53.4461 26.2177C53.195 25.7235 53.1463 25.2219 53.3 24.7129C53.4487 24.201 53.7921 23.7305 54.3302 23.3014L54.2226 23.2392C53.2129 23.6269 52.1237 23.7852 50.9551 23.7142C49.7814 23.6402 48.764 23.3546 47.9029 22.8575C47.088 22.3869 46.601 21.8306 46.4421 21.1884C46.2781 20.5433 46.4293 19.876 46.8957 19.1865C47.3622 18.491 48.1259 17.837 49.1868 17.2245C50.2478 16.6119 51.378 16.1725 52.5773 15.9061C53.7818 15.6368 54.9427 15.5495 56.0601 15.6442C57.1723 15.736 58.1359 16.0141 58.9509 16.4787C59.8119 16.9818 60.3014 17.5722 60.4193 18.2499C60.5372 18.9275 60.2681 19.5534 59.612 20.1275L59.7197 20.1897C60.4526 19.8849 61.2599 19.691 62.1415 19.6082C63.0231 19.5194 63.8918 19.5475 64.7478 19.6925C65.6037 19.8316 66.3623 20.0891 67.0235 20.4649C67.8692 20.9591 68.3664 21.5509 68.515 22.2405C68.6636 22.93 68.4714 23.6535 67.9384 24.4111C67.4053 25.1627 66.5468 25.8804 65.3628 26.564ZM62.918 25.1524C63.4459 24.8476 63.8124 24.5265 64.0174 24.1891C64.2173 23.8488 64.2583 23.5174 64.1404 23.1948C64.0225 22.8663 63.7406 22.5734 63.2947 22.3159C62.8385 22.0525 62.3209 21.8868 61.7417 21.8188C61.1574 21.7477 60.568 21.7685 59.9734 21.8809C59.3737 21.9904 58.8176 22.1931 58.3051 22.489C57.7976 22.782 57.4465 23.1031 57.2518 23.4523C57.0519 23.7985 57.0134 24.1403 57.1364 24.4777C57.2595 24.8091 57.549 25.1065 58.0052 25.3699C58.4511 25.6274 58.956 25.7916 59.5198 25.8626C60.0785 25.9307 60.6551 25.9055 61.2496 25.7872C61.8391 25.6658 62.3952 25.4542 62.918 25.1524ZM55.8833 21.0908C56.3241 20.8363 56.6265 20.5581 56.7905 20.2563C56.9545 19.9544 56.975 19.6555 56.852 19.3596C56.729 19.0637 56.4599 18.7959 56.0447 18.5562C55.6347 18.3194 55.1785 18.1685 54.6762 18.1034C54.1688 18.0353 53.6588 18.0486 53.1463 18.1433C52.6286 18.2351 52.1442 18.4111 51.6932 18.6716C51.2473 18.929 50.9423 19.2087 50.7783 19.5105C50.6092 19.8094 50.5835 20.1053 50.7014 20.3983C50.8193 20.6854 51.0833 20.9473 51.4933 21.184C51.9085 21.4237 52.3723 21.5791 52.8849 21.6501C53.3974 21.7211 53.9151 21.7093 54.4379 21.6146C54.9607 21.5199 55.4425 21.3453 55.8833 21.0908Z" fill="#A3A3A3"/>
</svg>
