<svg width="104" height="62" viewBox="0 0 104 62" fill="none" xmlns="http://www.w3.org/2000/svg">
    <path opacity="0.1" d="M101.953 34.2032L56.4811 60.8035C54.0059 62.2512 50.2624 62.4088 48.1191 61.1548L1.44697 33.8519C-0.696302 32.5979 -0.427569 30.4079 2.04708 28.9601L47.5184 2.35991C49.9936 0.912159 53.7372 0.754578 55.8805 2.00855L102.553 29.3115C104.696 30.5649 104.428 32.7555 101.953 34.2032Z" fill="#FFBE00"/>
    <path opacity="0.1" d="M95.8668 33.8847L55.9344 57.2447C53.7609 58.516 50.4729 58.6541 48.5907 57.5532L7.6048 33.5768C5.72257 32.4759 5.95833 30.5521 8.13182 29.2808L48.0642 5.92079C50.2377 4.64955 53.5257 4.51145 55.4079 5.6123L96.3944 29.5888C98.276 30.6902 98.0403 32.6134 95.8668 33.8847Z" fill="#FFBE00"/>
    <path d="M93.5778 25.6819C93.8087 24.8706 93.4492 24.0571 92.4699 23.4841L54.5594 1.30678C52.8184 0.288341 49.7771 0.415851 47.7669 1.59187L10.8318 23.1985C10.1973 23.5696 9.65625 24.4029 9.65625 25.1379L9.65625 29.4634C9.65625 30.6366 9.76946 31.2458 10.8318 31.8667L48.7423 54.0441C50.4833 55.0625 53.5245 54.935 55.5348 53.759L92.4699 32.1524C93.7801 31.3862 94.0878 30.4173 94.0653 29.4634L93.5778 25.6819Z" fill="#FFBE00"/>
    <path d="M49.248 54.2813C51.0215 55.0213 53.683 54.8336 55.5135 53.7723V0.95561L55.0475 0.682761C53.5731 -0.179765 51.1715 -0.211499 49.248 0.510707V54.2813Z" fill="#FFBE00"/>
    <path d="M92.9572 22.8615L83.5961 17.3854L74.235 11.9093L69.5544 9.17122L64.8738 6.43316L60.1933 3.69509L55.5127 0.957031V53.7741C55.5193 53.7702 55.5275 53.7675 55.5341 53.7636L92.4692 32.1569C93.7794 31.3907 94.1316 30.5861 94.0646 29.468V25.0593C94.296 24.248 93.9365 23.4345 92.9572 22.8615Z" fill="#FFBE00"/>
    <path opacity="0.1" d="M90.847 21.6074L90.5766 25.3977C90.5255 26.3137 90.1716 27.2409 88.9197 27.972L55.0835 47.7232C53.3194 48.7528 50.6623 48.8642 49.1357 47.9732L14.4054 27.6997C13.3893 27.1067 13.2403 26.5242 13.1519 25.3972L12.7174 22.0702C10.828 23.1251 9.65723 25.1196 9.65723 27.2835V29.4659C9.65723 30.6392 9.77044 31.2483 10.8327 31.8692L48.7433 54.0466C50.4843 55.065 53.5255 54.9375 55.5358 53.7615L92.4709 32.1549C93.7805 31.3887 94.0888 30.4198 94.0663 29.4659V24.2415C94.1141 23.4228 90.847 21.6074 90.847 21.6074Z" fill="#FFBE00"/>
    <path opacity="0.1" d="M91.971 22.2832L91.7435 27.6332C91.7238 28.567 91.388 29.5136 90.1091 30.2609L54.8958 50.8351C53.0251 51.9282 50.202 52.0468 48.5825 51.1007L12.4393 29.983C11.4017 29.3766 11.2677 28.7825 11.2165 27.6338L10.8904 23.2087C9.89632 23.7342 9.27441 24.7664 9.27441 25.8909V29.1484C9.27441 30.3216 9.38762 30.9307 10.4499 31.5516L48.3605 53.729C50.1015 54.7474 53.1427 54.6199 55.153 53.4439L92.0881 31.8373C93.3977 31.0711 93.706 30.1022 93.6835 29.1484L93.8329 23.6714L93.6924 23.4578L93.4816 23.2443L93.2708 23.0663L93.0249 22.9239L91.971 22.2832Z" fill="#FFBE00"/>
    <path d="M92.4738 26.8385L55.5387 48.4451C53.5284 49.6211 50.4871 49.7486 48.7462 48.7302L10.8356 26.5529C9.09459 25.5344 9.31276 23.7554 11.323 22.5793L48.2581 0.972736C50.2684 -0.203285 53.3097 -0.330803 55.0507 0.687635L92.9612 22.865C94.7028 23.8834 94.484 25.6625 92.4738 26.8385Z" fill="#F0F7F5"/>
    <path d="M49.513 3.68541L15.9577 23.3147C14.6404 24.0854 14.6404 25.3349 15.9577 26.105L49.513 45.7343C50.8303 46.5049 52.9659 46.5049 54.2832 45.7343L87.8385 26.105C89.1558 25.3343 89.1558 24.0848 87.8385 23.3147L54.2832 3.68541C52.9664 2.91476 50.8309 2.91476 49.513 3.68541ZM82.8617 24.0525C83.4827 24.4161 83.4827 25.0052 82.8617 25.3683L53.023 42.8237C52.402 43.1873 51.3947 43.1873 50.7737 42.8237L20.935 25.3683C20.314 25.0047 20.314 24.4156 20.935 24.0525L50.7737 6.59706C51.3947 6.23346 52.402 6.23346 53.023 6.59706L82.8617 24.0525Z" fill="#FFBE00"/>
    <path opacity="0.4" d="M48.6136 2.88064L14.5829 22.7884C12.8825 23.7828 12.8825 25.396 14.5829 26.3905L23.7071 31.7282C33.0161 30.9509 42.4926 28.2508 50.2221 23.7294C57.9516 19.208 62.5673 13.6642 63.8956 8.2184L54.7713 2.88064C53.071 1.88614 50.3144 1.88614 48.6136 2.88064Z" fill="white"/>
    <path d="M52.9002 32.9706C51.5771 33.7386 50.1186 34.2123 48.5248 34.3916C46.936 34.5679 45.2758 34.4484 43.544 34.033C41.8173 33.6146 40.0983 32.9018 38.387 31.8947C36.6756 30.8936 35.47 29.8924 34.7702 28.8913C34.0754 27.8871 33.8864 26.9248 34.2031 26.0044C34.5198 25.0779 35.3346 24.2307 36.6475 23.4627C37.9604 22.6946 39.4061 22.2194 40.9846 22.0371C42.5683 21.8518 44.2183 21.9624 45.9348 22.3689C47.6461 22.7723 49.3549 23.4761 51.0611 24.4802C52.7827 25.4874 53.9985 26.4975 54.7086 27.5106C55.4238 28.5207 55.6307 29.4905 55.3293 30.4199C55.0279 31.3493 54.2182 32.1995 52.9002 32.9706ZM50.1493 31.3613C51.0484 30.8353 51.314 30.1509 50.9462 29.3082C50.5784 28.4654 49.4877 27.5166 47.6742 26.4616C46.4839 25.7653 45.3703 25.2572 44.3332 24.9375C43.3013 24.6147 42.3639 24.4668 41.521 24.4937C40.6832 24.5176 39.9655 24.7044 39.3678 25.054C38.4738 25.577 38.2056 26.2569 38.5632 27.0937C38.9208 27.9305 39.9885 28.8718 41.7662 29.9178C42.9718 30.6231 44.0983 31.1416 45.1455 31.4733C46.1927 31.7991 47.1404 31.95 47.9884 31.9261C48.8313 31.8992 49.5516 31.7109 50.1493 31.3613ZM61.2583 27.6776L58.8675 26.2789L59.2813 19.9852C59.2967 19.4383 59.2813 18.9631 59.2354 18.5596C59.1945 18.1532 59.0821 17.7976 58.8982 17.4927C58.7092 17.1849 58.4078 16.91 57.994 16.6679C57.5342 16.399 57.0336 16.2286 56.4921 16.1569C55.9455 16.0822 55.4014 16.0986 54.8599 16.2062C54.3133 16.3108 53.8101 16.4976 53.3504 16.7665C52.8702 17.0475 52.5483 17.3493 52.3849 17.6721C52.2214 17.9948 52.2239 18.3191 52.3925 18.6448C52.5611 18.9706 52.8957 19.2799 53.3963 19.5727L50.247 21.4152C49.2202 20.8145 48.5612 20.157 48.27 19.4427C47.9788 18.7285 48.0452 18.0053 48.4692 17.2731C48.8932 16.5409 49.6518 15.855 50.745 15.2155C51.8689 14.558 53.0464 14.1023 54.2776 13.8483C55.5087 13.5883 56.7066 13.527 57.8714 13.6645C59.0361 13.8019 60.0706 14.1352 60.9748 14.6641C61.5674 15.0108 62.0348 15.4217 62.3771 15.8969C62.7245 16.3691 62.9543 16.9847 63.0667 17.7438C63.174 18.4999 63.1791 19.4801 63.082 20.6845L63.0361 23.3383L63.1433 23.401L69.7333 19.5458L72.4459 21.1327L61.2583 27.6776Z" fill="#FFBE00"/>
</svg>
