<svg width="104" height="62" viewBox="0 0 104 62" fill="none" xmlns="http://www.w3.org/2000/svg">
    <path opacity="0.1" d="M101.953 34.2032L56.4811 60.8035C54.0059 62.2512 50.2624 62.4088 48.1191 61.1548L1.44697 33.8519C-0.696302 32.5979 -0.427569 30.4079 2.04708 28.9601L47.5184 2.35991C49.9936 0.912159 53.7372 0.754578 55.8805 2.00855L102.553 29.3115C104.696 30.5649 104.428 32.7555 101.953 34.2032Z" fill="#FFBE00"/>
    <path opacity="0.1" d="M95.8668 33.8847L55.9344 57.2447C53.7609 58.516 50.4729 58.6541 48.5907 57.5532L7.6048 33.5768C5.72257 32.4759 5.95833 30.5521 8.13182 29.2808L48.0642 5.92079C50.2377 4.64955 53.5257 4.51145 55.4079 5.6123L96.3944 29.5888C98.276 30.6902 98.0403 32.6134 95.8668 33.8847Z" fill="#FFBE00"/>
    <path d="M93.5778 25.6819C93.8087 24.8706 93.4492 24.0571 92.4699 23.4841L54.5594 1.30678C52.8184 0.288341 49.7771 0.415851 47.7669 1.59187L10.8318 23.1985C10.1973 23.5696 9.65625 24.4029 9.65625 25.1379L9.65625 29.4634C9.65625 30.6366 9.76946 31.2458 10.8318 31.8667L48.7423 54.0441C50.4833 55.0625 53.5245 54.935 55.5348 53.759L92.4699 32.1524C93.7801 31.3862 94.0878 30.4173 94.0653 29.4634L93.5778 25.6819Z" fill="#FFBE00"/>
    <path d="M49.248 54.2813C51.0215 55.0213 53.683 54.8336 55.5135 53.7723V0.95561L55.0475 0.682761C53.5731 -0.179765 51.1715 -0.211499 49.248 0.510707V54.2813Z" fill="#FFBE00"/>
    <path d="M92.9572 22.8615L83.5961 17.3854L74.235 11.9093L69.5544 9.17122L64.8738 6.43316L60.1933 3.69509L55.5127 0.957031V53.7741C55.5193 53.7702 55.5275 53.7675 55.5341 53.7636L92.4692 32.1569C93.7794 31.3907 94.1316 30.5861 94.0646 29.468V25.0593C94.296 24.248 93.9365 23.4345 92.9572 22.8615Z" fill="#FFBE00"/>
    <path opacity="0.1" d="M90.847 21.6074L90.5766 25.3977C90.5255 26.3137 90.1716 27.2409 88.9197 27.972L55.0835 47.7232C53.3194 48.7528 50.6623 48.8642 49.1357 47.9732L14.4054 27.6997C13.3893 27.1067 13.2403 26.5242 13.1519 25.3972L12.7174 22.0702C10.828 23.1251 9.65723 25.1196 9.65723 27.2835V29.4659C9.65723 30.6392 9.77044 31.2483 10.8327 31.8692L48.7433 54.0466C50.4843 55.065 53.5255 54.9375 55.5358 53.7615L92.4709 32.1549C93.7805 31.3887 94.0888 30.4198 94.0663 29.4659V24.2415C94.1141 23.4228 90.847 21.6074 90.847 21.6074Z" fill="#FFBE00"/>
    <path opacity="0.1" d="M91.971 22.2832L91.7435 27.6332C91.7238 28.567 91.388 29.5136 90.1091 30.2609L54.8958 50.8351C53.0251 51.9282 50.202 52.0468 48.5825 51.1007L12.4393 29.983C11.4017 29.3766 11.2677 28.7825 11.2165 27.6338L10.8904 23.2087C9.89632 23.7342 9.27441 24.7664 9.27441 25.8909V29.1484C9.27441 30.3216 9.38762 30.9307 10.4499 31.5516L48.3605 53.729C50.1015 54.7474 53.1427 54.6199 55.153 53.4439L92.0881 31.8373C93.3977 31.0711 93.706 30.1022 93.6835 29.1484L93.8329 23.6714L93.6924 23.4578L93.4816 23.2443L93.2708 23.0663L93.0249 22.9239L91.971 22.2832Z" fill="#FFBE00"/>
    <path d="M92.4738 26.8385L55.5387 48.4451C53.5284 49.6211 50.4871 49.7486 48.7462 48.7302L10.8356 26.5529C9.09459 25.5344 9.31276 23.7554 11.323 22.5793L48.2581 0.972736C50.2684 -0.203285 53.3097 -0.330803 55.0507 0.687635L92.9612 22.865C94.7028 23.8834 94.484 25.6625 92.4738 26.8385Z" fill="#F0F7F5"/>
    <path d="M49.513 3.68541L15.9577 23.3147C14.6404 24.0854 14.6404 25.3349 15.9577 26.105L49.513 45.7343C50.8303 46.5049 52.9659 46.5049 54.2832 45.7343L87.8385 26.105C89.1558 25.3343 89.1558 24.0848 87.8385 23.3147L54.2832 3.68541C52.9664 2.91476 50.8309 2.91476 49.513 3.68541ZM82.8617 24.0525C83.4827 24.4161 83.4827 25.0052 82.8617 25.3683L53.023 42.8237C52.402 43.1873 51.3947 43.1873 50.7737 42.8237L20.935 25.3683C20.314 25.0047 20.314 24.4156 20.935 24.0525L50.7737 6.59706C51.3947 6.23346 52.402 6.23346 53.023 6.59706L82.8617 24.0525Z" fill="#FFBE00"/>
    <path opacity="0.4" d="M48.6136 2.88064L14.5829 22.7884C12.8825 23.7828 12.8825 25.396 14.5829 26.3905L23.7071 31.7282C33.0161 30.9509 42.4926 28.2508 50.2221 23.7294C57.9516 19.208 62.5673 13.6642 63.8956 8.2184L54.7713 2.88064C53.071 1.88614 50.3144 1.88614 48.6136 2.88064Z" fill="white"/>
    <path d="M55.2009 32.582C53.8734 33.3426 52.4101 33.8116 50.811 33.9892C49.2169 34.1638 47.5512 34.0454 45.8136 33.6341C44.0812 33.2198 42.3565 32.514 40.6395 31.5167C38.9224 30.5253 37.7128 29.534 37.0106 28.5426C36.3136 27.5483 36.1239 26.5954 36.4417 25.6839C36.7595 24.7666 37.577 23.9276 38.8942 23.1671C40.2115 22.4065 41.662 21.936 43.2458 21.7555C44.8347 21.572 46.4902 21.6815 48.2124 22.084C49.9294 22.4835 51.6439 23.1804 53.3558 24.1747C55.0831 25.172 56.3029 26.1722 57.0154 27.1754C57.7329 28.1757 57.9405 29.1359 57.6381 30.0563C57.3357 30.9766 56.5233 31.8185 55.2009 32.582ZM52.4409 30.9885C53.343 30.4676 53.6095 29.79 53.2404 28.9554C52.8714 28.1209 51.7771 27.1813 49.9576 26.1367C48.7633 25.4472 47.646 24.9441 46.6055 24.6275C45.5702 24.3079 44.6296 24.1614 43.7839 24.188C42.9434 24.2117 42.2232 24.3967 41.6236 24.7429C40.7266 25.2608 40.4575 25.934 40.8163 26.7626C41.1751 27.5912 42.2463 28.5234 44.03 29.5591C45.2396 30.2575 46.3697 30.771 47.4205 31.0994C48.4712 31.422 49.422 31.5714 50.2728 31.5478C51.1185 31.5211 51.8412 31.3347 52.4409 30.9885ZM69.6221 24.1048C68.474 24.7677 67.2541 25.2441 65.9625 25.5341C64.6709 25.8182 63.4177 25.9085 62.203 25.8049C60.9882 25.6954 59.9145 25.3803 58.9816 24.8594L62.3337 22.9241C62.7386 23.1342 63.2024 23.257 63.7252 23.2925C64.248 23.3221 64.7837 23.2703 65.3321 23.1371C65.8805 23.004 66.3982 22.7968 66.8851 22.5157C67.3925 22.2227 67.7513 21.912 67.9614 21.5835C68.1716 21.255 68.228 20.9354 68.1306 20.6247C68.0332 20.314 67.7769 20.0388 67.3618 19.799C66.9415 19.5564 66.452 19.4099 65.8933 19.3596C65.3346 19.3034 64.7452 19.3478 64.125 19.4928C63.51 19.6348 62.9052 19.8775 62.3106 20.2207L60.8422 21.0686L58.3973 19.657L59.8658 18.8092C60.3681 18.5192 60.7243 18.2129 60.9344 17.8903C61.1497 17.5648 61.2112 17.2511 61.1189 16.9493C61.0216 16.6445 60.7653 16.3722 60.3501 16.1325C59.9555 15.9046 59.5147 15.7596 59.0277 15.6975C58.5408 15.6294 58.0437 15.6442 57.5362 15.7419C57.0339 15.8366 56.5598 16.0127 56.1139 16.2701C55.6629 16.5305 55.3323 16.8161 55.1221 17.1268C54.9069 17.4346 54.8351 17.7394 54.9069 18.0412C54.9786 18.3431 55.2067 18.6139 55.5911 18.8536L52.4005 20.6957C51.5087 20.163 50.9679 19.5519 50.7783 18.8624C50.5887 18.1729 50.7245 17.4701 51.1858 16.754C51.6471 16.0319 52.4159 15.3601 53.4922 14.7387C54.5788 14.1113 55.7269 13.6763 56.9366 13.4336C58.1462 13.191 59.3122 13.1333 60.4347 13.2605C61.5572 13.3819 62.531 13.6837 63.3562 14.1661C64.2429 14.6721 64.7042 15.2551 64.7401 15.915C64.7811 16.572 64.4402 17.2008 63.7176 17.8015L63.8406 17.8726C65.1476 17.2896 66.4315 17.0129 67.6924 17.0425C68.9532 17.0662 70.0706 17.3621 71.0444 17.9303C71.9465 18.4452 72.4847 19.0548 72.6589 19.7591C72.8383 20.4604 72.6718 21.1899 72.1592 21.9475C71.6467 22.7051 70.801 23.4242 69.6221 24.1048Z" fill="#FFBE00"/>
</svg>
