<svg width="104" height="62" viewBox="0 0 104 62" fill="none" xmlns="http://www.w3.org/2000/svg">
    <path opacity="0.1" d="M101.953 34.2032L56.4811 60.8035C54.0059 62.2512 50.2624 62.4088 48.1191 61.1548L1.44697 33.8519C-0.696302 32.5979 -0.427569 30.4079 2.04708 28.9601L47.5184 2.35991C49.9936 0.912159 53.7372 0.754578 55.8805 2.00855L102.553 29.3115C104.696 30.5649 104.428 32.7555 101.953 34.2032Z" fill="#FFBE00"/>
    <path opacity="0.1" d="M95.8668 33.8847L55.9344 57.2447C53.7609 58.516 50.4729 58.6541 48.5907 57.5532L7.6048 33.5768C5.72257 32.4759 5.95833 30.5521 8.13182 29.2808L48.0642 5.92079C50.2377 4.64955 53.5257 4.51145 55.4079 5.6123L96.3944 29.5888C98.276 30.6902 98.0403 32.6134 95.8668 33.8847Z" fill="#FFBE00"/>
    <path d="M93.5778 25.6819C93.8087 24.8706 93.4492 24.0571 92.4699 23.4841L54.5594 1.30678C52.8184 0.288341 49.7771 0.415851 47.7669 1.59187L10.8318 23.1985C10.1973 23.5696 9.65625 24.4029 9.65625 25.1379L9.65625 29.4634C9.65625 30.6366 9.76946 31.2458 10.8318 31.8667L48.7423 54.0441C50.4833 55.0625 53.5245 54.935 55.5348 53.759L92.4699 32.1524C93.7801 31.3862 94.0878 30.4173 94.0653 29.4634L93.5778 25.6819Z" fill="#FFBE00"/>
    <path d="M49.248 54.2813C51.0215 55.0213 53.683 54.8336 55.5135 53.7723V0.95561L55.0475 0.682761C53.5731 -0.179765 51.1715 -0.211499 49.248 0.510707V54.2813Z" fill="#FFBE00"/>
    <path d="M92.9572 22.8615L83.5961 17.3854L74.235 11.9093L69.5544 9.17122L64.8738 6.43316L60.1933 3.69509L55.5127 0.957031V53.7741C55.5193 53.7702 55.5275 53.7675 55.5341 53.7636L92.4692 32.1569C93.7794 31.3907 94.1316 30.5861 94.0646 29.468V25.0593C94.296 24.248 93.9365 23.4345 92.9572 22.8615Z" fill="#FFBE00"/>
    <path opacity="0.1" d="M90.847 21.6074L90.5766 25.3977C90.5255 26.3137 90.1716 27.2409 88.9197 27.972L55.0835 47.7232C53.3194 48.7528 50.6623 48.8642 49.1357 47.9732L14.4054 27.6997C13.3893 27.1067 13.2403 26.5242 13.1519 25.3972L12.7174 22.0702C10.828 23.1251 9.65723 25.1196 9.65723 27.2835V29.4659C9.65723 30.6392 9.77044 31.2483 10.8327 31.8692L48.7433 54.0466C50.4843 55.065 53.5255 54.9375 55.5358 53.7615L92.4709 32.1549C93.7805 31.3887 94.0888 30.4198 94.0663 29.4659V24.2415C94.1141 23.4228 90.847 21.6074 90.847 21.6074Z" fill="#FFBE00"/>
    <path opacity="0.1" d="M91.971 22.2832L91.7435 27.6332C91.7238 28.567 91.388 29.5136 90.1091 30.2609L54.8958 50.8351C53.0251 51.9282 50.202 52.0468 48.5825 51.1007L12.4393 29.983C11.4017 29.3766 11.2677 28.7825 11.2165 27.6338L10.8904 23.2087C9.89632 23.7342 9.27441 24.7664 9.27441 25.8909V29.1484C9.27441 30.3216 9.38762 30.9307 10.4499 31.5516L48.3605 53.729C50.1015 54.7474 53.1427 54.6199 55.153 53.4439L92.0881 31.8373C93.3977 31.0711 93.706 30.1022 93.6835 29.1484L93.8329 23.6714L93.6924 23.4578L93.4816 23.2443L93.2708 23.0663L93.0249 22.9239L91.971 22.2832Z" fill="#FFBE00"/>
    <path d="M92.4738 26.8385L55.5387 48.4451C53.5284 49.6211 50.4871 49.7486 48.7462 48.7302L10.8356 26.5529C9.09459 25.5344 9.31276 23.7554 11.323 22.5793L48.2581 0.972736C50.2684 -0.203285 53.3097 -0.330803 55.0507 0.687635L92.9612 22.865C94.7028 23.8834 94.484 25.6625 92.4738 26.8385Z" fill="#F0F7F5"/>
    <path d="M49.513 3.68541L15.9577 23.3147C14.6404 24.0854 14.6404 25.3349 15.9577 26.105L49.513 45.7343C50.8303 46.5049 52.9659 46.5049 54.2832 45.7343L87.8385 26.105C89.1558 25.3343 89.1558 24.0848 87.8385 23.3147L54.2832 3.68541C52.9664 2.91476 50.8309 2.91476 49.513 3.68541ZM82.8617 24.0525C83.4827 24.4161 83.4827 25.0052 82.8617 25.3683L53.023 42.8237C52.402 43.1873 51.3947 43.1873 50.7737 42.8237L20.935 25.3683C20.314 25.0047 20.314 24.4156 20.935 24.0525L50.7737 6.59706C51.3947 6.23346 52.402 6.23346 53.023 6.59706L82.8617 24.0525Z" fill="#FFBE00"/>
    <path opacity="0.4" d="M48.6136 2.88064L14.5829 22.7884C12.8825 23.7828 12.8825 25.396 14.5829 26.3905L23.7071 31.7282C33.0161 30.9509 42.4926 28.2508 50.2221 23.7294C57.9516 19.208 62.5673 13.6642 63.8956 8.2184L54.7713 2.88064C53.071 1.88614 50.3144 1.88614 48.6136 2.88064Z" fill="white"/>
    <path d="M55.2009 32.582C53.8734 33.3426 52.4101 33.8116 50.811 33.9892C49.2169 34.1638 47.5512 34.0454 45.8136 33.6341C44.0812 33.2198 42.3565 32.514 40.6395 31.5167C38.9224 30.5253 37.7128 29.534 37.0106 28.5426C36.3136 27.5483 36.1239 26.5954 36.4417 25.6839C36.7595 24.7666 37.577 23.9276 38.8942 23.1671C40.2115 22.4065 41.662 21.936 43.2458 21.7555C44.8347 21.572 46.4902 21.6815 48.2124 22.084C49.9294 22.4835 51.6439 23.1804 53.3558 24.1747C55.0831 25.172 56.3029 26.1722 57.0154 27.1754C57.7329 28.1757 57.9405 29.1359 57.6381 30.0563C57.3357 30.9766 56.5233 31.8185 55.2009 32.582ZM52.4409 30.9885C53.343 30.4676 53.6095 29.79 53.2404 28.9554C52.8714 28.1209 51.7771 27.1813 49.9576 26.1367C48.7633 25.4472 47.646 24.9441 46.6055 24.6275C45.5702 24.3079 44.6296 24.1614 43.7839 24.188C42.9434 24.2117 42.2232 24.3967 41.6236 24.7429C40.7266 25.2608 40.4575 25.934 40.8163 26.7626C41.1751 27.5912 42.2463 28.5234 44.03 29.5591C45.2396 30.2575 46.3697 30.771 47.4205 31.0994C48.4712 31.422 49.422 31.5714 50.2728 31.5478C51.1185 31.5211 51.8412 31.3347 52.4409 30.9885ZM69.8451 23.9761C69.0301 24.4407 68.1126 24.8136 67.0927 25.0947C66.0778 25.3729 64.9733 25.5105 63.7791 25.5075C62.5848 25.5045 61.3188 25.3181 59.9811 24.9482C58.6485 24.5753 57.262 23.9731 55.8218 23.1416C54.5045 22.3751 53.4743 21.6057 52.7311 20.8333C51.9879 20.055 51.5317 19.2945 51.3626 18.5517C51.1986 17.806 51.319 17.0972 51.7239 16.4255C52.1237 15.7508 52.8105 15.1323 53.7844 14.57C54.8351 13.9633 55.9678 13.5461 57.1826 13.3182C58.3922 13.0874 59.589 13.0327 60.773 13.154C61.9621 13.2724 63.041 13.552 64.0097 13.9929L60.7268 15.8884C60.0503 15.6457 59.3507 15.5525 58.628 15.6087C57.9053 15.6649 57.2415 15.8676 56.6367 16.2168C55.6116 16.8087 55.2785 17.516 55.6372 18.3386C56.0012 19.1584 56.9442 20.0136 58.4665 20.9043L58.5741 20.8422C58.3435 20.4368 58.264 20.024 58.3358 19.6037C58.4076 19.1776 58.6126 18.7663 58.9509 18.3697C59.2891 17.9673 59.7453 17.6003 60.3194 17.2689C61.2522 16.7303 62.3029 16.3781 63.4715 16.2124C64.635 16.0437 65.8087 16.0585 66.9927 16.2568C68.1767 16.4551 69.2608 16.8383 70.2448 17.4065C71.3109 18.022 72.0106 18.713 72.3437 19.4794C72.682 20.2429 72.6436 21.0168 72.2284 21.801C71.8132 22.5793 71.0188 23.3043 69.8451 23.9761ZM67.2157 22.4757C67.7282 22.1798 68.064 21.8439 68.2228 21.4681C68.3817 21.0923 68.3664 20.7164 68.1767 20.3406C67.9871 19.9648 67.6309 19.6259 67.1081 19.3241C66.5853 19.0222 66.001 18.818 65.3551 18.7115C64.7145 18.602 64.0712 18.5917 63.4254 18.6804C62.7796 18.7692 62.2004 18.9616 61.6879 19.2575C61.3035 19.4794 61.019 19.7265 60.8345 19.9988C60.6551 20.2681 60.5705 20.5477 60.5808 20.8378C60.5961 21.1248 60.7038 21.4059 60.9037 21.6812C61.0984 21.9534 61.3855 22.199 61.7647 22.418C62.2722 22.711 62.8513 22.9122 63.5023 23.0217C64.1583 23.1282 64.8118 23.1386 65.4628 23.0528C66.1188 22.964 66.7031 22.7716 67.2157 22.4757Z" fill="#FFBE00"/>
</svg>
