<svg width="104" height="62" viewBox="0 0 104 62" fill="none" xmlns="http://www.w3.org/2000/svg">
    <path opacity="0.1" d="M101.953 34.2032L56.4811 60.8035C54.0059 62.2512 50.2624 62.4088 48.1191 61.1548L1.44697 33.8519C-0.696302 32.5979 -0.427569 30.4079 2.04708 28.9601L47.5184 2.35991C49.9936 0.912159 53.7372 0.754578 55.8805 2.00855L102.553 29.3115C104.696 30.5649 104.428 32.7555 101.953 34.2032Z" fill="#FFBE00"/>
    <path opacity="0.1" d="M95.8668 33.8847L55.9344 57.2447C53.7609 58.516 50.4729 58.6541 48.5907 57.5532L7.6048 33.5768C5.72257 32.4759 5.95833 30.5521 8.13182 29.2808L48.0642 5.92079C50.2377 4.64955 53.5257 4.51145 55.4079 5.6123L96.3944 29.5888C98.276 30.6902 98.0403 32.6134 95.8668 33.8847Z" fill="#FFBE00"/>
    <path d="M93.5778 25.6819C93.8087 24.8706 93.4492 24.0571 92.4699 23.4841L54.5594 1.30678C52.8184 0.288341 49.7771 0.415851 47.7669 1.59187L10.8318 23.1985C10.1973 23.5696 9.65625 24.4029 9.65625 25.1379L9.65625 29.4634C9.65625 30.6366 9.76946 31.2458 10.8318 31.8667L48.7423 54.0441C50.4833 55.0625 53.5245 54.935 55.5348 53.759L92.4699 32.1524C93.7801 31.3862 94.0878 30.4173 94.0653 29.4634L93.5778 25.6819Z" fill="#FFBE00"/>
    <path d="M49.248 54.2813C51.0215 55.0213 53.683 54.8336 55.5135 53.7723V0.95561L55.0475 0.682761C53.5731 -0.179765 51.1715 -0.211499 49.248 0.510707V54.2813Z" fill="#FFBE00"/>
    <path d="M92.9572 22.8615L83.5961 17.3854L74.235 11.9093L69.5544 9.17122L64.8738 6.43316L60.1933 3.69509L55.5127 0.957031V53.7741C55.5193 53.7702 55.5275 53.7675 55.5341 53.7636L92.4692 32.1569C93.7794 31.3907 94.1316 30.5861 94.0646 29.468V25.0593C94.296 24.248 93.9365 23.4345 92.9572 22.8615Z" fill="#FFBE00"/>
    <path opacity="0.1" d="M90.847 21.6074L90.5766 25.3977C90.5255 26.3137 90.1716 27.2409 88.9197 27.972L55.0835 47.7232C53.3194 48.7528 50.6623 48.8642 49.1357 47.9732L14.4054 27.6997C13.3893 27.1067 13.2403 26.5242 13.1519 25.3972L12.7174 22.0702C10.828 23.1251 9.65723 25.1196 9.65723 27.2835V29.4659C9.65723 30.6392 9.77044 31.2483 10.8327 31.8692L48.7433 54.0466C50.4843 55.065 53.5255 54.9375 55.5358 53.7615L92.4709 32.1549C93.7805 31.3887 94.0888 30.4198 94.0663 29.4659V24.2415C94.1141 23.4228 90.847 21.6074 90.847 21.6074Z" fill="#FFBE00"/>
    <path opacity="0.1" d="M91.971 22.2832L91.7435 27.6332C91.7238 28.567 91.388 29.5136 90.1091 30.2609L54.8958 50.8351C53.0251 51.9282 50.202 52.0468 48.5825 51.1007L12.4393 29.983C11.4017 29.3766 11.2677 28.7825 11.2165 27.6338L10.8904 23.2087C9.89632 23.7342 9.27441 24.7664 9.27441 25.8909V29.1484C9.27441 30.3216 9.38762 30.9307 10.4499 31.5516L48.3605 53.729C50.1015 54.7474 53.1427 54.6199 55.153 53.4439L92.0881 31.8373C93.3977 31.0711 93.706 30.1022 93.6835 29.1484L93.8329 23.6714L93.6924 23.4578L93.4816 23.2443L93.2708 23.0663L93.0249 22.9239L91.971 22.2832Z" fill="#FFBE00"/>
    <path d="M92.4738 26.8385L55.5387 48.4451C53.5284 49.6211 50.4871 49.7486 48.7462 48.7302L10.8356 26.5529C9.09459 25.5344 9.31276 23.7554 11.323 22.5793L48.2581 0.972736C50.2684 -0.203285 53.3097 -0.330803 55.0507 0.687635L92.9612 22.865C94.7028 23.8834 94.484 25.6625 92.4738 26.8385Z" fill="#F0F7F5"/>
    <path d="M49.513 3.68541L15.9577 23.3147C14.6404 24.0854 14.6404 25.3349 15.9577 26.105L49.513 45.7343C50.8303 46.5049 52.9659 46.5049 54.2832 45.7343L87.8385 26.105C89.1558 25.3343 89.1558 24.0848 87.8385 23.3147L54.2832 3.68541C52.9664 2.91476 50.8309 2.91476 49.513 3.68541ZM82.8617 24.0525C83.4827 24.4161 83.4827 25.0052 82.8617 25.3683L53.023 42.8237C52.402 43.1873 51.3947 43.1873 50.7737 42.8237L20.935 25.3683C20.314 25.0047 20.314 24.4156 20.935 24.0525L50.7737 6.59706C51.3947 6.23346 52.402 6.23346 53.023 6.59706L82.8617 24.0525Z" fill="#FFBE00"/>
    <path opacity="0.4" d="M48.6136 2.88064L14.5829 22.7884C12.8825 23.7828 12.8825 25.396 14.5829 26.3905L23.7071 31.7282C33.0161 30.9509 42.4926 28.2508 50.2221 23.7294C57.9516 19.208 62.5673 13.6642 63.8956 8.2184L54.7713 2.88064C53.071 1.88614 50.3144 1.88614 48.6136 2.88064Z" fill="white"/>
    <path d="M55.2009 32.582C53.8734 33.3426 52.4101 33.8116 50.811 33.9892C49.2169 34.1638 47.5512 34.0454 45.8136 33.6341C44.0812 33.2198 42.3565 32.514 40.6395 31.5167C38.9224 30.5253 37.7128 29.534 37.0106 28.5426C36.3136 27.5483 36.1239 26.5954 36.4417 25.6839C36.7595 24.7666 37.577 23.9276 38.8942 23.1671C40.2115 22.4065 41.662 21.936 43.2458 21.7555C44.8347 21.572 46.4902 21.6815 48.2124 22.084C49.9294 22.4835 51.6439 23.1804 53.3558 24.1747C55.0831 25.172 56.3029 26.1722 57.0154 27.1754C57.7329 28.1757 57.9405 29.1359 57.6381 30.0563C57.3357 30.9766 56.5233 31.8185 55.2009 32.582ZM52.4409 30.9885C53.343 30.4676 53.6095 29.79 53.2404 28.9554C52.8714 28.1209 51.7771 27.1813 49.9576 26.1367C48.7633 25.4472 47.646 24.9441 46.6055 24.6275C45.5702 24.3079 44.6296 24.1614 43.7839 24.188C42.9434 24.2117 42.2232 24.3967 41.6236 24.7429C40.7266 25.2608 40.4575 25.934 40.8163 26.7626C41.1751 27.5912 42.2463 28.5234 44.03 29.5591C45.2396 30.2575 46.3697 30.771 47.4205 31.0994C48.4712 31.422 49.422 31.5714 50.2728 31.5478C51.1185 31.5211 51.8412 31.3347 52.4409 30.9885ZM53.3231 14.8363C54.1329 14.3688 55.0478 13.9974 56.0678 13.7222C57.0929 13.444 58.1974 13.3064 59.3814 13.3093C60.5705 13.3093 61.8288 13.4943 63.1563 13.8642C64.4838 14.2282 65.8626 14.8201 67.2926 15.6398C68.6303 16.4122 69.6734 17.189 70.4217 17.9702C71.17 18.7455 71.6313 19.5061 71.8056 20.2518C71.9798 20.9976 71.8645 21.7093 71.4596 22.3869C71.0495 23.0617 70.3576 23.6801 69.3838 24.2424C68.333 24.8491 67.2029 25.2678 65.9933 25.4986C64.7785 25.7265 63.574 25.7798 62.3798 25.6584C61.1856 25.5312 60.0964 25.2426 59.1123 24.7928L62.3952 22.8974C63.0974 23.1549 63.8124 23.257 64.5402 23.2037C65.2629 23.1475 65.9266 22.9448 66.5314 22.5956C67.5565 22.0037 67.8897 21.2964 67.5309 20.4738C67.167 19.6481 66.2085 18.784 64.6555 17.8814L64.5479 17.9436C64.7734 18.346 64.8528 18.7589 64.7862 19.182C64.7145 19.6023 64.5094 20.0136 64.1712 20.4161C63.838 20.8156 63.3818 21.1825 62.8027 21.5169C61.8749 22.0525 60.8293 22.4047 59.6659 22.5734C58.5024 22.7421 57.3287 22.7273 56.1447 22.529C54.9607 22.3307 53.8792 21.949 52.9002 21.3837C51.8393 20.7771 51.1422 20.0935 50.809 19.333C50.4759 18.5724 50.5169 17.803 50.9321 17.0247C51.3472 16.2405 52.1442 15.5111 53.3231 14.8363ZM55.9601 16.3323C55.4425 16.6311 55.1042 16.9685 54.9453 17.3443C54.7915 17.7172 54.8044 18.0915 54.9837 18.4674C55.1683 18.8402 55.5194 19.1732 56.037 19.4661C56.5547 19.765 57.1339 19.9692 57.7746 20.0787C58.4153 20.1823 59.0559 20.1912 59.6966 20.1053C60.3373 20.0136 60.9139 19.8198 61.4265 19.5238C61.8109 19.3019 62.0953 19.0548 62.2799 18.7825C62.4644 18.5103 62.5515 18.2321 62.5413 17.948C62.531 17.658 62.4285 17.3769 62.2337 17.1046C62.039 16.8324 61.7545 16.5882 61.3803 16.3722C60.878 16.0881 60.304 15.8928 59.6582 15.7863C59.0124 15.6797 58.3614 15.6709 57.7054 15.7596C57.0493 15.8484 56.4676 16.0393 55.9601 16.3323Z" fill="#FFBE00"/>
</svg>
