<svg width="52" height="52" viewBox="0 0 52 52" fill="none" xmlns="http://www.w3.org/2000/svg">
    <path d="M25.9997 47.6654C37.9658 47.6654 47.6663 37.9649 47.6663 25.9987C47.6663 14.0325 37.9658 4.33203 25.9997 4.33203C14.0335 4.33203 4.33301 14.0325 4.33301 25.9987C4.33301 37.9649 14.0335 47.6654 25.9997 47.6654Z" stroke="#58CC02" stroke-width="5"/>
    <path d="M19.5 34.6654C21.3425 36.031 23.5833 36.832 26 36.832C28.4167 36.832 30.6575 36.031 32.5 34.6654" stroke="#58CC02" stroke-width="4" stroke-linecap="round"/>
    <path d="M32.4997 26C33.6963 26 34.6663 24.5449 34.6663 22.75C34.6663 20.9551 33.6963 19.5 32.4997 19.5C31.3031 19.5 30.333 20.9551 30.333 22.75C30.333 24.5449 31.3031 26 32.4997 26Z" fill="#58CC02"/>
    <path d="M19.4997 26C20.6963 26 21.6663 24.5449 21.6663 22.75C21.6663 20.9551 20.6963 19.5 19.4997 19.5C18.3031 19.5 17.333 20.9551 17.333 22.75C17.333 24.5449 18.3031 26 19.4997 26Z" fill="#58CC02"/>
</svg>
