<svg width="125" height="131" viewBox="0 0 125 131" fill="none" xmlns="http://www.w3.org/2000/svg">
<g filter="url(#filter0_d_283_2561)">
<path d="M19.2675 119.073C41.9829 130.942 78.8144 130.942 101.53 119.073C124.245 107.205 124.245 87.9666 101.53 76.0983C78.8144 64.2299 41.9829 64.2299 19.2675 76.0983C-3.4479 87.9666 -3.4479 107.205 19.2675 119.073Z" fill="white"/>
</g>
<path d="M20.1299 77.3009L22.1696 76.1355C22.1696 76.1355 23.1479 70.7444 22.4164 66.11C21.3877 59.5943 16.9514 57.3469 15.3402 57.9943C13.7289 58.6421 13.3503 60.5723 16.2602 64.3371C17.9766 66.5584 20.1849 71.254 20.1299 77.3009Z" fill="#70B3FA"/>
<g opacity="0.1">
<path d="M20.1299 77.3009L22.1696 76.1355C22.1696 76.1355 23.1479 70.7444 22.4164 66.11C21.3877 59.5943 16.9514 57.3469 15.3402 57.9943C13.7289 58.6421 13.3503 60.5723 16.2602 64.3371C17.9766 66.5584 20.1849 71.254 20.1299 77.3009Z" fill="black"/>
</g>
<path d="M20.8694 74.713C20.8628 74.713 20.8561 74.7124 20.8492 74.7116C20.7698 74.7006 20.7139 74.6273 20.7252 74.5476C21.5682 68.4473 19.1151 61.7642 16.3587 59.0706C16.3013 59.0147 16.3002 58.9223 16.3564 58.865C16.4126 58.8082 16.5047 58.8065 16.5621 58.8627C19.3686 61.6051 21.8686 68.3972 21.0131 74.5873C21.0033 74.6603 20.9407 74.713 20.8694 74.713Z" fill="white"/>
<path d="M14.4703 80.5704C14.1481 80.7555 13.4839 80.3508 13.2292 80.1802C12.7936 79.8879 12.4407 79.4742 12.2064 79.0061C11.9335 78.4615 11.8648 77.8774 11.9503 77.2749C11.9946 76.9623 12.0821 76.6578 12.1693 76.3545C12.255 76.0567 12.3405 75.7589 12.4262 75.4609C12.5108 75.1671 12.596 74.8629 12.5572 74.5596C12.4789 73.9487 11.9366 73.5205 11.4436 73.1512C10.8984 72.7427 10.3303 72.2039 10.3335 71.4681C10.3358 70.9006 10.6299 70.3733 10.9815 69.9278C11.3332 69.4822 11.7507 69.0886 12.0687 68.6184C12.2976 68.2797 12.4761 67.8823 12.439 67.4753C12.4158 67.2224 12.3109 66.9842 12.1898 66.7612C11.93 66.282 11.5873 65.8435 11.4083 65.3287C11.2292 64.8142 11.2547 64.174 11.6562 63.8058C11.9859 63.5036 12.4758 63.4613 12.9222 63.4909C13.335 63.5181 13.7382 63.7044 14.0995 63.9054C15.2675 64.5549 15.9341 65.9382 17.1734 66.4379C17.6514 66.6305 18.1751 66.6728 18.6734 66.8046C19.1716 66.9365 19.6798 67.1908 19.9106 67.6517C20.3657 68.5605 19.5213 69.6804 19.8411 70.6448C20.1241 71.4985 20.9535 71.825 21.4193 72.5944C21.623 72.931 21.6699 73.3198 21.6372 73.712C21.5816 74.3754 21.4845 74.8624 21.1662 75.6002C20.9031 76.21 20.1296 77.3012 20.1296 77.3012C20.1102 77.3204 14.5198 80.542 14.4703 80.5704Z" fill="#70B3FA"/>
<path d="M17.7816 78.8062C17.7795 78.8062 17.7775 78.8062 17.7775 78.8062C17.6952 78.8027 17.633 78.7349 17.6362 78.6547C17.8763 72.8809 15.1561 66.5066 13.1778 64.6549C13.1193 64.6001 13.1161 64.508 13.1712 64.4492C13.2262 64.3907 13.318 64.3878 13.3768 64.4425C15.3948 66.3316 18.1706 72.812 17.9273 78.6669C17.9238 78.7451 17.8592 78.8062 17.7816 78.8062Z" fill="white"/>
<path d="M16.9168 71.9849C16.9026 71.9849 16.8882 71.9828 16.874 71.9782C15.0188 71.4046 12.7068 71.3035 12.6839 71.3027C12.6034 71.2992 12.5414 71.2314 12.5446 71.1511C12.548 71.0712 12.6089 71.0077 12.6958 71.0118C12.7192 71.013 15.068 71.1155 16.9597 71.7004C17.0365 71.7239 17.0796 71.8056 17.0556 71.8823C17.0365 71.9449 16.9791 71.9849 16.9168 71.9849Z" fill="white"/>
<path d="M115.511 69.3248L113.655 68.264C113.655 68.264 112.764 63.3561 113.43 59.1373C114.367 53.2059 118.405 51.1599 119.872 51.7494C121.339 52.3389 121.684 54.0961 119.035 57.5235C117.472 59.5455 115.461 63.8201 115.511 69.3248Z" fill="#70B3FA"/>
<g opacity="0.1">
<path d="M115.511 69.3248L113.655 68.264C113.655 68.264 112.764 63.3561 113.43 59.1373C114.367 53.2059 118.405 51.1599 119.872 51.7494C121.339 52.3389 121.684 54.0961 119.035 57.5235C117.472 59.5455 115.461 63.8201 115.511 69.3248Z" fill="black"/>
</g>
<path d="M114.838 66.9689C114.845 66.9689 114.851 66.9684 114.857 66.9675C114.929 66.9574 114.98 66.8907 114.97 66.8183C114.202 61.2653 116.436 55.1812 118.945 52.7293C118.997 52.6783 118.998 52.5943 118.947 52.5421C118.895 52.4906 118.812 52.4888 118.759 52.5401C116.205 55.0366 113.929 61.2198 114.708 66.8545C114.717 66.9209 114.774 66.9689 114.838 66.9689Z" fill="white"/>
<path d="M120.663 72.301C120.956 72.4696 121.561 72.1011 121.793 71.9459C122.189 71.6799 122.511 71.303 122.724 70.8769C122.972 70.381 123.035 69.8497 122.957 69.301C122.917 69.0165 122.837 68.7393 122.758 68.4632C122.68 68.1921 122.602 67.9209 122.524 67.6498C122.447 67.3824 122.369 67.1054 122.405 66.8294C122.476 66.2732 122.97 65.8832 123.419 65.5472C123.915 65.1755 124.432 64.6848 124.429 64.015C124.427 63.4982 124.159 63.0185 123.839 62.6129C123.519 62.2074 123.139 61.849 122.849 61.4209C122.641 61.1126 122.479 60.7508 122.512 60.3803C122.533 60.15 122.629 59.9333 122.739 59.7302C122.976 59.2943 123.288 58.8948 123.451 58.4263C123.614 57.9579 123.591 57.3754 123.225 57.0399C122.925 56.7647 122.479 56.7265 122.073 56.7531C121.697 56.778 121.329 56.9475 121.001 57.1303C119.938 57.7215 119.331 58.9805 118.202 59.4356C117.767 59.6112 117.29 59.6494 116.837 59.7693C116.383 59.8893 115.921 60.121 115.711 60.5405C115.296 61.3676 116.065 62.3873 115.774 63.2653C115.516 64.0423 114.761 64.3398 114.337 65.04C114.152 65.3464 114.109 65.7004 114.139 66.0573C114.189 66.6613 114.278 67.1046 114.568 67.7764C114.807 68.3314 115.511 69.3247 115.511 69.3247C115.529 69.3424 120.618 72.275 120.663 72.301Z" fill="#70B3FA"/>
<path d="M117.648 70.695C117.65 70.695 117.652 70.695 117.652 70.695C117.727 70.6918 117.783 70.6301 117.781 70.5571C117.562 65.301 120.038 59.4985 121.839 57.8125C121.892 57.7627 121.895 57.679 121.846 57.6254C121.795 57.5721 121.712 57.5695 121.658 57.6193C119.821 59.3389 117.294 65.2381 117.516 70.5681C117.519 70.6394 117.578 70.695 117.648 70.695Z" fill="white"/>
<path d="M118.436 64.4852C118.449 64.4852 118.462 64.4835 118.475 64.4794C120.163 63.9574 122.268 63.8653 122.289 63.8644C122.363 63.8612 122.419 63.7995 122.416 63.7265C122.413 63.6535 122.358 63.5959 122.278 63.5996C122.257 63.6005 120.119 63.6941 118.397 64.2262C118.327 64.2477 118.287 64.3218 118.309 64.3917C118.327 64.449 118.379 64.4852 118.436 64.4852Z" fill="white"/>
<path d="M87.8104 32.9954L107.583 44.4103C108.622 45.0103 109.464 46.4694 109.464 47.6693V63.7056C109.464 64.9055 108.622 66.3647 107.583 66.9647L105.462 68.1889C104.423 68.7888 102.738 68.7888 101.699 68.1889L81.9274 56.7737C80.8883 56.1737 80.0459 54.7146 80.0459 53.5147V37.4783C80.0459 36.2784 80.8883 34.8193 81.9274 34.2193L84.0474 32.9954C85.0865 32.3954 86.7713 32.3954 87.8104 32.9954Z" fill="#70B3FA"/>
<path opacity="0.03" d="M107.583 46.5829L105.462 47.8072C104.423 48.4071 103.581 49.8663 103.581 51.0662V67.1025C103.581 68.3024 104.423 68.7888 105.462 68.1888L107.583 66.9646C108.622 66.3647 109.464 64.9055 109.464 63.7056V47.6693C109.464 46.4691 108.622 45.9827 107.583 46.5829Z" fill="black"/>
<path opacity="0.2" d="M105.166 68.3369C104.124 68.7787 102.646 68.7352 101.697 68.192L81.9264 56.771C80.8908 56.1772 80.0435 54.7142 80.0435 53.512V37.4777C80.0435 36.8766 80.2535 36.2103 80.5939 35.6237L104.131 49.2101C103.791 49.804 103.581 50.4703 103.581 51.0642V67.1057C103.58 68.1848 104.268 68.6845 105.166 68.3369Z" fill="black"/>
<path opacity="0.1" d="M109.461 47.6675C109.461 46.4725 108.621 45.9801 107.585 46.5812L105.463 47.8051C104.942 48.1093 104.471 48.6235 104.131 49.2101L80.5933 35.6237C80.9336 35.0298 81.4116 34.5229 81.9258 34.2187L84.0478 32.9948C85.0834 32.3936 86.7709 32.3936 87.8138 32.9948L107.585 44.4085C108.621 45.0096 109.461 46.4725 109.461 47.6675Z" fill="white"/>
<path d="M84.412 41.7144L101.242 51.4311C102.281 52.0311 103.123 53.4902 103.123 54.6901V67.3293C103.123 68.5292 102.281 69.9883 101.242 70.5883L81.4705 82.0032C80.4314 82.6032 78.7465 82.6032 77.7074 82.0032L60.8776 72.2864C59.8385 71.6865 58.9961 70.2273 58.9961 69.0274V56.3883C58.9961 55.1884 59.8385 53.7292 60.8776 53.1293L80.6489 41.7144C81.688 41.1144 83.3729 41.1144 84.412 41.7144Z" fill="#70B3FA"/>
<path opacity="0.2" d="M101.241 53.6037L81.4401 65.0232C80.4009 65.6232 78.7161 65.6232 77.677 65.0232L60.8472 55.3068C59.8081 54.7068 59.8081 53.7341 60.8472 53.1341L80.6486 41.7146C81.6877 41.1146 83.3726 41.1146 84.4117 41.7146L101.241 51.4313C102.281 52.031 102.281 53.0038 101.241 53.6037Z" fill="white"/>
<path opacity="0.2" d="M79.5858 65.4731V82.4562C78.905 82.4562 78.2242 82.3041 77.71 81.9999L60.8791 72.2881C59.8362 71.687 58.9961 70.2313 58.9961 69.0291V56.3914C58.9961 55.3992 59.5682 54.2259 60.3576 53.5162C59.8434 54.0956 60.01 54.8198 60.8501 55.305L77.6738 65.0241C78.2022 65.3283 78.8975 65.4804 79.5858 65.4731Z" fill="black"/>
<path d="M57.9352 31.0493L77.7065 19.6344C78.7457 19.0344 80.4305 19.0344 81.4696 19.6344L83.5901 20.8586C84.6292 21.4586 85.4717 22.9177 85.4717 24.1176V40.154C85.4717 41.3539 84.6292 42.813 83.5901 43.413L63.8188 54.8279C62.7797 55.4278 61.0949 55.4278 60.0558 54.8279L57.9352 53.6037C56.8961 53.0037 56.0537 51.5445 56.0537 50.3447V34.3083C56.0537 33.1084 56.8961 31.6493 57.9352 31.0493Z" fill="#70B3FA"/>
<path opacity="0.2" d="M84.9247 22.2668L61.3874 35.8604C61.0543 35.2666 60.5763 34.7524 60.0548 34.4482L57.9329 33.2243C56.8972 32.6232 56.0571 33.1084 56.0571 34.3106C56.0571 33.1084 56.8972 31.6527 57.9329 31.0516L77.7042 19.6378C78.747 19.0367 80.4345 19.0367 81.4701 19.6378L83.5921 20.8618C84.1135 21.1587 84.5843 21.6726 84.9247 22.2668Z" fill="white"/>
<path opacity="0.2" d="M57.9352 33.2219L60.0558 34.4461C61.0949 35.0461 61.9373 36.5052 61.9373 37.7051V53.7415C61.9373 54.9414 61.0949 55.4278 60.0558 54.8278L57.9352 53.6036C56.8961 53.0036 56.0537 51.5445 56.0537 50.3446V34.3082C56.0537 33.1083 56.8961 32.622 57.9352 33.2219Z" fill="black"/>
<path d="M60.1849 55.7103L77.0147 65.427C78.0538 66.027 78.8963 67.4862 78.8963 68.6861V81.3252C78.8963 82.5251 78.0538 83.9843 77.0147 84.5842L57.2434 95.9991C56.2043 96.5991 54.5195 96.5991 53.4804 95.9991L36.6506 86.2824C35.6115 85.6824 34.769 84.2233 34.769 83.0234V70.3842C34.769 69.1843 35.6115 67.7252 36.6506 67.1252L56.4219 55.7103C57.461 55.1103 59.1458 55.1103 60.1849 55.7103Z" fill="#70B3FA"/>
<path opacity="0.2" d="M77.014 67.5997L57.2125 79.0193C56.1734 79.6192 54.4886 79.6192 53.4495 79.0193L36.6197 69.3025C35.5806 68.7026 35.5806 67.7298 36.6197 67.1298L56.4211 55.7103C57.4602 55.1103 59.145 55.1103 60.1842 55.7103L77.014 65.427C78.0531 66.027 78.0531 66.9998 77.014 67.5997Z" fill="white"/>
<path opacity="0.2" d="M55.3582 79.4689V96.4519C54.6775 96.4519 53.9967 96.2998 53.4825 95.9956L36.6515 86.2838C35.6087 85.6827 34.7686 84.227 34.7686 83.0248V70.3871C34.7686 69.3949 35.3407 68.2217 36.1301 67.5119C35.6159 68.0913 35.7825 68.8155 36.6226 69.3008L53.4463 79.0198C53.975 79.324 54.6702 79.4761 55.3582 79.4689Z" fill="black"/>
<path d="M33.7082 45.0457L53.4795 33.6308C54.5186 33.0309 56.2034 33.0309 57.2426 33.6308L59.3631 34.855C60.4022 35.455 61.2446 36.9141 61.2446 38.114V54.1504C61.2446 55.3503 60.4022 56.8094 59.3631 57.4094L39.5918 68.8243C38.5527 69.4242 36.8678 69.4242 35.8287 68.8243L33.7082 67.6001C32.6691 67.0001 31.8267 65.541 31.8267 64.3411V48.305C31.8267 47.1046 32.6691 45.6457 33.7082 45.0457Z" fill="#70B3FA"/>
<path opacity="0.2" d="M33.7082 47.2185L35.8287 48.4427C36.8678 49.0426 37.7103 50.5018 37.7103 51.7017V67.738C37.7103 68.9379 36.8678 69.4243 35.8287 68.8244L33.7082 67.6001C32.6691 67.0002 31.8267 65.541 31.8267 64.3411V48.3051C31.8267 47.1046 32.6691 46.6182 33.7082 47.2185Z" fill="black"/>
<path opacity="0.2" d="M60.6918 36.2588L37.1617 49.8453C36.8214 49.2586 36.3434 48.7444 35.8292 48.4403L33.7072 47.2163C32.6716 46.6152 31.8242 47.1077 31.8242 48.3027C31.8242 47.1077 32.6716 45.6448 33.7072 45.0437L53.4785 33.6299C54.5214 33.0288 56.2016 33.0288 57.2445 33.6299L59.3664 34.8538C59.8806 35.158 60.3514 35.665 60.6918 36.2588Z" fill="white"/>
<path d="M33.2684 64.4536L53.0406 75.8685C54.0797 76.4684 54.9221 77.9276 54.9221 79.1275V95.1638C54.9221 96.3637 54.0797 97.8229 53.0406 98.4228L50.9201 99.6471C49.881 100.247 48.1961 100.247 47.157 99.6471L27.3854 88.2319C26.3463 87.6319 25.5039 86.1728 25.5039 84.9729V68.9365C25.5039 67.7366 26.3463 66.2775 27.3854 65.6775L29.5054 64.4536C30.5445 63.8536 32.2293 63.8536 33.2684 64.4536Z" fill="#70B3FA"/>
<path opacity="0.03" d="M53.0411 78.0408L50.9206 79.265C49.8815 79.865 49.0391 81.3241 49.0391 82.524V98.5603C49.0391 99.7602 49.8815 100.247 50.9206 99.6467L53.0411 98.4224C54.0802 97.8225 54.9227 96.3633 54.9227 95.1634V79.1271C54.9227 77.9272 54.0802 77.4408 53.0411 78.0408Z" fill="black"/>
<path opacity="0.2" d="M50.6245 99.795C49.5816 100.237 48.1042 100.193 47.1555 99.6501L27.3844 88.2291C26.3488 87.6353 25.5015 86.1723 25.5015 84.9701V68.9358C25.5015 68.3347 25.7115 67.6684 26.0519 67.0818L49.5891 80.6682C49.2488 81.2621 49.0387 81.9284 49.0387 82.5223V98.5638C49.0384 99.6429 49.7264 100.143 50.6245 99.795Z" fill="black"/>
<path opacity="0.1" d="M54.9193 79.1257C54.9193 77.9307 54.0792 77.4382 53.0436 78.0393L50.9216 79.2633C50.4002 79.5674 49.9294 80.0816 49.589 80.6683L26.0518 67.0818C26.3921 66.488 26.8701 65.981 27.3843 65.6768L29.5063 64.4529C30.5419 63.8518 32.2294 63.8518 33.2723 64.4529L53.0436 75.8667C54.0792 76.4678 54.9193 77.9307 54.9193 79.1257Z" fill="white"/>
<path d="M54.164 43.0363C56.4228 42.9596 57.6345 43.8156 58.0253 45.5369C58.4161 47.258 57.2058 54.2314 57.2058 54.2314C60.7435 56.4 63.1563 57.8224 64.8307 58.5935C66.1499 59.2013 70.039 62.4276 70.0903 63.2123C70.1419 63.9971 68.5662 62.6663 67.5894 62.015C66.6126 61.3638 65.4434 61.4368 63.499 60.9162C61.5546 60.3957 54.6415 58.6286 53.673 57.7059C52.7049 56.7827 54.164 43.0363 54.164 43.0363Z" fill="#FFA8A7"/>
<path d="M68.328 84.3197C68.0653 84.5949 67.7649 84.9144 67.7985 85.26C67.8321 85.6056 68.0091 86.4388 68.7348 87.2247C69.4604 88.0106 69.9364 89.5075 70.0711 90.524C70.2055 91.5405 70.2976 94.1326 71.5865 95.1529C72.8753 96.1729 76.0016 96.6842 76.0031 94.7937C76.0045 92.9032 72.271 85.6326 72.271 85.6326L68.328 84.3197Z" fill="#263238"/>
<path d="M70.0591 85.5357C70.4264 86.487 71.0006 88.0801 71.3201 89.5972C71.6399 91.1143 72.0881 92.1821 72.8615 92.5914C73.6347 93.0007 74.7909 92.9254 74.3566 91.895C73.9224 90.8646 72.27 85.6328 72.27 85.6328L70.0591 85.5357Z" fill="#F28F8F"/>
<path d="M60.0678 59.7094C60.0678 59.7094 66.2141 62.5238 69.2032 64.1281C72.1922 65.7324 75.0337 67.3042 75.6279 68.5974C76.2556 69.9644 76.0954 73.22 75.7675 76.3524C75.4396 79.4848 74.7548 85.1134 74.7548 85.1134L66.0018 71.9937L57.2065 66.184L60.0678 59.7094Z" fill="#455A64"/>
<path d="M59.79 65.695L60.0661 65.0414C60.0661 65.0414 65.1467 67.9771 66.9106 69.0698C68.6748 70.1626 70.5598 71.4986 71.4243 73.5073C72.2887 75.516 74.9692 83.4703 74.9692 83.4703L68.7988 72.4184L59.79 65.695Z" fill="#37474F"/>
<path d="M75.5022 94.9348C75.249 95.1023 75.2834 95.7289 75.3084 96.1866C75.3336 96.644 75.0016 97.2474 75.6676 97.9546C76.3336 98.6617 77.457 98.7257 78.3657 99.6909C79.2745 100.656 80.6691 102.44 83.1685 102.569C85.6682 102.698 87.3829 101.606 87.7198 100.815C88.057 100.023 87.5437 99.4053 85.8568 98.7677C84.066 98.0907 83.5567 97.8888 83.5567 97.8888L75.5022 94.9348Z" fill="#263238"/>
<path d="M77.3119 89.5506C77.3119 89.5506 78.9959 92.5959 79.9412 93.9661C80.8864 95.3363 82.2314 96.5631 83.6842 97.6758C84.0006 97.918 84.6958 98.3462 84.9539 98.5417C85.1839 98.7158 85.2648 98.9551 85.0524 99.2631C84.6341 99.8697 82.4481 100.446 81.0171 99.7732C79.586 99.1011 78.0046 97.5855 77.1112 96.991C76.6639 96.6935 76.2427 96.4079 75.9333 96.197C75.6364 95.9945 75.4669 95.6532 75.4869 95.2946C75.4927 95.1929 75.4976 95.0739 75.502 94.9345C75.5243 94.1854 73.9756 91.4501 73.9756 91.4501L77.3119 89.5506Z" fill="#FFA8A7"/>
<path d="M46.4658 63.18C46.4907 65.6798 46.6153 67.0735 47.9261 69.3542C49.237 71.6349 52.4331 73.0767 56.2069 74.3447C59.3298 75.3939 63.924 76.891 64.8333 77.0877C65.7426 77.2844 65.9341 77.7714 66.1444 79.3861C66.355 81.0009 67.4414 83.4876 69.8805 86.3784C72.457 89.4314 74.8357 93.0937 74.8357 93.0937C74.8357 93.0937 77.3835 93.0937 78.3592 91.3952C78.3592 91.3952 71.265 74.6601 70.1288 72.7294C68.9926 70.7986 59.7895 65.6951 59.7895 65.6951C59.7895 65.6951 59.9433 62.2322 60.0673 59.7096L46.4658 63.18Z" fill="#455A64"/>
<path d="M61.0936 63.2121C61.0936 63.2121 60.4418 64.717 59.79 65.695L60.3529 66.0116C60.3529 66.0116 61.0858 64.6217 61.0936 63.2121Z" fill="#37474F"/>
<path d="M48.015 44.0248L45.801 45.1395C45.801 45.1395 47.3285 46.674 46.9102 50.4466C46.6138 53.1175 46.0165 53.3447 44.6602 54.0993C46.4661 58.1996 46.4878 64.2384 46.4878 64.2384C46.4878 64.2384 49.6758 65.9488 55.4763 64.3022C60.5722 62.8555 60.0673 59.7097 60.0673 59.7097L57.8761 58.0211L57.3813 54.0295C57.3813 54.0295 59.1084 52.2951 58.3593 49.2102C57.6101 46.1253 54.1637 43.0366 54.1637 43.0366H52.8195L48.015 44.0248Z" fill="#FAFAFA"/>
<path d="M59.2449 62.119C56.6553 63.088 52.726 63.2398 51.1446 62.1228C49.5631 61.0054 48.2259 57.911 48.4852 55.9089C48.7442 53.9066 48.2335 50.4877 47.4478 48.4581L46.9333 48.3141C46.9922 48.9471 46.9979 49.6554 46.9102 50.4471C46.6138 53.1181 46.0165 53.3452 44.6602 54.0998C46.3548 58.1007 46.4878 64.2389 46.4878 64.2389C46.4878 64.2389 49.6758 65.9493 55.4763 64.3027C57.1238 63.8342 58.4517 63.11 59.2449 62.119Z" fill="#F0F0F0"/>
<path d="M52.0621 40.8472L49.5748 40.915C46.1104 41.0094 43.2254 38.2773 43.1313 34.8129C43.0183 30.6617 46.2918 27.2048 50.443 27.0919C54.5943 26.9789 58.0511 30.2524 58.1641 34.4036C58.2585 37.868 55.5265 40.753 52.0621 40.8472Z" fill="#263238"/>
<path d="M48.4554 25.3702C49.5652 26.9258 48.4511 28.0318 46.8954 29.1416C45.3395 30.2514 43.9313 30.9446 42.8215 29.389C41.7117 27.8331 42.2618 26.0561 43.8175 24.9463C45.3731 23.8365 47.3456 23.8142 48.4554 25.3702Z" fill="#263238"/>
<path d="M44.6986 30.3479L43.1348 31.5609C42.7788 31.1318 42.8402 30.5125 43.2721 30.1776C43.7041 29.8424 44.3428 29.9186 44.6986 30.3479Z" fill="#263238"/>
<path d="M55.1669 30.3326C55.9737 30.7802 57.0093 32.7504 57.0264 36.939C57.0409 40.4891 55.9149 41.397 55.3442 41.6653C54.7735 41.9335 53.6559 41.8104 52.5681 41.6592L52.5875 43.1294C52.5875 43.1294 54.5394 45.2649 54.4719 46.2441C54.4044 47.223 51.9745 47.7308 50.5484 46.8151C49.1222 45.8994 47.8885 44.0963 47.8885 44.0963L47.7833 39.1757C47.7833 39.1757 47.1628 39.8118 46.0568 38.8967C45.1437 38.1412 44.8073 36.8344 45.4832 36.1099C46.159 35.3854 47.449 35.5424 47.969 36.5352C47.969 36.5352 49.6976 36.5514 51.9624 35.2255C54.2272 33.8999 55.0516 31.7124 55.1669 30.3326Z" fill="#FFA8A7"/>
<path d="M53.0403 36.1559C53.0603 36.4112 52.8769 36.6331 52.6313 36.6516C52.3856 36.6698 52.1701 36.4778 52.1504 36.2226C52.1307 35.9674 52.3138 35.7455 52.5597 35.7272C52.8054 35.7084 53.0206 35.9004 53.0403 36.1559Z" fill="#263238"/>
<path d="M53.2415 39.16L54.2867 39.4624C54.2088 39.7613 53.9116 39.936 53.623 39.8523C53.3342 39.7689 53.1636 39.4589 53.2415 39.16Z" fill="#F28F8F"/>
<path d="M56.6615 34.6861L55.7417 34.0849C55.8993 33.8228 56.2333 33.7446 56.4871 33.9108C56.7411 34.0768 56.8191 34.4239 56.6615 34.6861Z" fill="#263238"/>
<path d="M56.4818 35.7393C56.5017 35.9945 56.3184 36.2164 56.0727 36.235C55.8268 36.2532 55.6115 36.0612 55.5918 35.806C55.5718 35.5504 55.7552 35.3288 56.0009 35.3103C56.2465 35.2918 56.4621 35.4841 56.4818 35.7393Z" fill="#263238"/>
<path d="M54.4619 35.3167L54.5143 38.2249L55.9159 37.7486L54.4619 35.3167Z" fill="#F28F8F"/>
<path d="M52.5678 41.6594C51.423 41.5409 49.0571 40.9306 48.666 40.0123C48.666 40.0123 48.8039 40.5922 49.5212 41.1742C50.2387 41.7559 52.5873 42.3698 52.5873 42.3698L52.5678 41.6594Z" fill="#F28F8F"/>
<path d="M51.5845 68.8083V69.116C51.5845 69.4265 51.7505 69.7142 52.0184 69.8694L60.3099 74.6409C60.444 74.7185 60.5947 74.7565 60.7453 74.7565C60.8945 74.7565 61.0451 74.7185 61.1793 74.6409L76.3897 65.8596C76.6591 65.7043 76.8251 65.4166 76.8251 65.1061V64.8946L60.7453 74.1783L51.5845 68.8083Z" fill="#EBEBEB"/>
<path d="M76.825 64.8946L67.8064 59.688C67.6459 59.5953 67.4484 59.5953 67.2882 59.688L51.642 68.7226C51.5653 68.7669 51.5653 68.8778 51.642 68.9222L60.7452 74.1789L76.825 64.8946Z" fill="#FAFAFA"/>
<path d="M63.5005 60.916C64.2421 61.1999 64.214 61.4192 64.8183 61.7625C65.9391 62.399 66.6665 62.2724 66.6665 62.2724C66.6665 62.2724 67.2152 62.7967 67.7259 63.1472C68.5191 63.6915 69.3137 64.109 70.2908 63.8005C71.3606 63.4627 70.6063 62.4036 70.2908 61.8824C69.9753 61.3616 68.2526 59.834 67.9139 59.5223C67.5755 59.2103 66.1149 58.9957 64.8319 58.5936L63.5005 60.916Z" fill="#FFA8A7"/>
<path d="M60.6618 73.4129L55.7974 70.6073L70.0211 62.3955L74.9108 65.1863L60.6618 73.4129Z" fill="#E0E0E0"/>
<path d="M58.2715 65.6084L58.3613 65.6603L60.7454 67.0366L64.9853 64.5887L65.0737 64.5383L62.5997 63.1104L58.2715 65.6084Z" fill="#E0E0E0"/>
<path d="M58.3613 65.6603L60.7455 67.0366L64.9854 64.5887L62.5998 63.2124L58.3613 65.6603Z" fill="#E6E6E6"/>
<path d="M60.7456 74.1783V74.7568C60.8948 74.7568 61.0454 74.7188 61.1796 74.6412L76.39 65.8598C76.6594 65.7046 76.8254 65.4169 76.8254 65.1063V64.8949L60.7456 74.1783Z" fill="#EBEBEB"/>
<g opacity="0.5">
<path d="M60.7456 74.1783V74.7568C60.8948 74.7568 61.0454 74.7188 61.1796 74.6412L76.39 65.8598C76.6594 65.7046 76.8254 65.4169 76.8254 65.1063V64.8949L60.7456 74.1783Z" fill="#E0E0E0"/>
</g>
<path d="M60.9902 74.3066C61.2779 74.4179 61.6052 74.3964 61.8778 74.238L77.0213 65.4946C77.2879 65.3407 77.4704 65.0774 77.5222 64.7744L79.1801 54.8879C79.1891 54.8317 79.1937 54.7752 79.1937 54.719C79.1937 54.4435 79.0842 54.1802 78.8893 53.9867L63.1522 63.0739C62.9558 63.188 62.8202 63.383 62.7823 63.6067L60.9902 74.3066Z" fill="#EBEBEB"/>
<path d="M60.7456 74.1789L60.849 74.2382C60.8948 74.264 60.942 74.2869 60.9907 74.3069L62.7827 63.6072C62.8206 63.3836 62.9562 63.1886 63.1526 63.0745L78.8897 53.9872C78.8289 53.9264 78.7573 53.8731 78.6797 53.8273L62.9105 62.9314C62.714 63.0455 62.5785 63.2405 62.5405 63.4641L60.7456 74.1789Z" fill="#FAFAFA"/>
<path d="M69.5192 65.18C69.6302 64.518 70.3136 63.6388 71.0456 63.2162C71.7776 62.7935 72.2811 62.9876 72.1702 63.6495C72.0592 64.3115 71.3758 65.1907 70.6438 65.6133C69.9118 66.036 69.4083 65.8419 69.5192 65.18Z" fill="#70B3FA"/>
<path d="M52.9129 67.2456C50.9798 66.6825 44.0626 64.7462 41.963 64.0669C40.4995 63.5932 39.7095 63.2578 39.671 61.9933C39.635 60.8169 41.3781 51.1821 42.0096 48.8089C42.5638 46.7264 43.799 46.0132 45.8019 45.14C47.1875 46.2336 47.5812 51.8153 45.9265 53.2815C45.3103 55.7282 44.1997 59.9744 44.1997 59.9744C44.1997 59.9744 48.1319 62.0179 50.9425 63.3713C52.3457 64.0469 54.2461 65.0147 55.3623 65.135C56.2499 65.2306 57.8217 65.2914 58.1601 65.6034C58.4984 65.9154 60.1274 67.7283 60.4426 68.2494C60.758 68.7703 61.5124 69.8297 60.4426 70.1674C59.4654 70.476 58.6708 70.0585 57.8776 69.5142C57.3669 69.1637 56.8182 68.6393 56.8182 68.6393C56.8182 68.6393 55.6479 68.821 54.5271 68.1848C53.9225 67.841 52.9129 67.2456 52.9129 67.2456Z" fill="#FFA8A7"/>
<path d="M47.6357 15.87L46.5844 13.8931L47.4303 11.4513V9.95655L44.8413 11.4513V12.9461L45.9543 14.874C45.9731 14.9065 46.0001 14.9279 46.0299 14.9412L46.0293 14.9421L47.6357 15.87Z" fill="#E0E0E0"/>
<path d="M46.4668 13.8873L47.5775 15.8111C47.6484 15.9342 47.8312 15.9166 47.8776 15.7824L49.0514 12.3936L46.4668 13.8873Z" fill="#F0F0F0"/>
<path d="M51.9932 2.25368C51.9932 1.7586 51.6458 1.15691 51.2171 0.909229L50.585 0.544509C50.1565 0.297114 49.4613 0.297114 49.0328 0.544509L34.3942 9.00228C33.9655 9.24967 33.6182 9.85165 33.6182 10.3467V17.9175C33.6182 18.4125 33.9658 19.0142 34.3942 19.2619L35.0263 19.6266C35.4551 19.874 36.15 19.874 36.5788 19.6266L39.6958 17.8256L42.2807 16.3323L51.2174 11.1689C51.6461 10.9215 51.9934 10.3195 51.9934 9.82442L51.9932 2.25368Z" fill="#F0F0F0"/>
<path d="M33.6182 17.9172C33.6182 18.4122 33.9658 19.0139 34.3942 19.2616L35.0263 19.6263C35.4139 19.85 36.0168 19.8694 36.4461 19.6889C36.0808 19.8271 35.8027 19.6208 35.8027 19.1782V11.6074C35.8027 11.36 35.8896 11.0857 36.0301 10.8424L33.8459 9.58134C33.7054 9.82468 33.6185 10.0987 33.6185 10.3464L33.6182 17.9172Z" fill="#E0E0E0"/>
<path d="M51.9679 2.03292C51.8773 1.70325 51.5768 1.59838 51.2185 1.80493L36.5782 10.2639C36.3647 10.387 36.1691 10.597 36.0315 10.8432L33.8481 9.58309C33.9892 9.33685 34.1813 9.12683 34.3948 9.00371L49.0313 0.544782C49.4621 0.298547 50.1574 0.298547 50.5849 0.544782L51.2188 0.91066C51.5844 1.1204 51.892 1.59114 51.9679 2.03292Z" fill="#FAFAFA"/>
<path d="M37.7493 11.4238L50.0521 4.32061C50.3119 4.17055 50.5225 4.23921 50.5225 4.47357C50.5225 4.70822 50.3119 5.01992 50.0521 5.16969L37.7493 12.2729C37.4894 12.4229 37.2788 12.3543 37.2788 12.1199C37.2788 11.8856 37.4894 11.5739 37.7493 11.4238Z" fill="white"/>
<path d="M37.7493 13.8456L50.0521 6.74238C50.3119 6.59232 50.5225 6.66098 50.5225 6.89533C50.5225 7.12969 50.3119 7.44169 50.0521 7.59146L37.7493 14.6946C37.4894 14.8447 37.2788 14.776 37.2788 14.5417C37.2788 14.3073 37.4894 13.9956 37.7493 13.8456Z" fill="white"/>
<path d="M37.7493 16.2671L50.0521 9.16392C50.3119 9.01386 50.5225 9.08252 50.5225 9.31716C50.5225 9.55181 50.3119 9.86352 50.0521 10.0133L37.7493 17.1165C37.4894 17.2665 37.2788 17.1979 37.2788 16.9635C37.2788 16.7289 37.4894 16.4172 37.7493 16.2671Z" fill="white"/>
<path d="M59.995 22.339L58.9437 20.3622L59.7896 17.9204V16.4256L57.2007 17.9204V19.4152L58.3137 21.3431C58.3325 21.3755 58.3594 21.3969 58.3893 21.4103L58.3887 21.4111L59.995 22.339Z" fill="#70B3FA"/>
<path opacity="0.2" d="M59.995 22.339L58.9437 20.3622L59.7896 17.9204V16.4256L57.2007 17.9204V19.4152L58.3137 21.3431C58.3325 21.3755 58.3594 21.3969 58.3893 21.4103L58.3887 21.4111L59.995 22.339Z" fill="black"/>
<path d="M71.1246 4.7847C71.1246 4.28963 70.7773 3.68794 70.3485 3.44026L69.7164 3.07554C69.2877 2.82814 68.5927 2.82814 68.164 3.07554L53.5254 11.533C53.0967 11.7804 52.749 12.3824 52.749 12.8775V20.4482C52.749 20.9433 53.0967 21.545 53.5254 21.7927L54.1575 22.1577C54.5862 22.4051 55.2812 22.4051 55.7099 22.1577L58.827 20.3567L59.9377 22.2805C60.0086 22.4036 60.1914 22.3859 60.2378 22.2518L61.4116 18.863L70.3482 13.6996C70.777 13.4522 71.1243 12.8502 71.1243 12.3552L71.1246 4.7847Z" fill="#70B3FA"/>
<path opacity="0.2" d="M52.749 20.4482C52.749 20.9432 53.0967 21.5449 53.5251 21.7926L54.1572 22.1573C54.5445 22.381 55.1476 22.4004 55.577 22.2199C55.2117 22.3581 54.9336 22.1518 54.9336 21.7092V14.1384C54.9336 13.891 55.0205 13.6167 55.161 13.3734L52.9767 12.1123C52.8362 12.3557 52.7493 12.6297 52.7493 12.8774L52.749 20.4482Z" fill="black"/>
<path opacity="0.2" d="M71.0988 4.56419C71.0081 4.23481 70.7077 4.12965 70.3494 4.3362L55.709 12.7951C55.4955 12.9182 55.3 13.1283 55.1624 13.3745L52.979 12.1144C53.1201 11.8681 53.3121 11.6581 53.5257 11.535L68.1622 3.07605C68.593 2.82982 69.2882 2.82982 69.7158 3.07605L70.3496 3.44193C70.7149 3.65166 71.0229 4.12241 71.0988 4.56419Z" fill="white"/>
<path d="M59.2093 14.2604C58.6371 14.5909 58.1733 15.3939 58.1733 16.0547C58.1733 16.7152 58.6371 16.9829 59.2093 16.6529C59.7814 16.3227 60.2452 15.5194 60.2452 14.8586C60.2452 14.1981 59.7817 13.9301 59.2093 14.2604Z" fill="white"/>
<path d="M63.0286 12.0512C62.4565 12.3815 61.9927 13.1848 61.9927 13.8453C61.9927 14.5058 62.4565 14.7737 63.0286 14.4432C63.6007 14.1129 64.0645 13.3096 64.0645 12.6491C64.0642 11.9886 63.6007 11.721 63.0286 12.0512Z" fill="white"/>
<path d="M66.8474 9.84176C66.2753 10.172 65.8115 10.9753 65.8115 11.6361C65.8115 12.2966 66.2753 12.5643 66.8474 12.234C67.4196 11.9038 67.8834 11.1005 67.8834 10.44C67.8834 9.77918 67.4196 9.51151 66.8474 9.84176Z" fill="white"/>
<defs>
<filter id="filter0_d_283_2561" x="0.230957" y="66.197" width="120.335" height="64.7775" filterUnits="userSpaceOnUse" color-interpolation-filters="sRGB">
<feFlood flood-opacity="0" result="BackgroundImageFix"/>
<feColorMatrix in="SourceAlpha" type="matrix" values="0 0 0 0 0 0 0 0 0 0 0 0 0 0 0 0 0 0 127 0" result="hardAlpha"/>
<feOffset dy="1"/>
<feGaussianBlur stdDeviation="1"/>
<feColorMatrix type="matrix" values="0 0 0 0 0 0 0 0 0 0 0 0 0 0 0 0 0 0 0.3 0"/>
<feBlend mode="normal" in2="BackgroundImageFix" result="effect1_dropShadow_283_2561"/>
<feBlend mode="normal" in="SourceGraphic" in2="effect1_dropShadow_283_2561" result="shape"/>
</filter>
</defs>
</svg>
