<svg width="49.000000" height="49.000000" viewBox="0 0 49 49" fill="none" xmlns="http://www.w3.org/2000/svg" xmlns:xlink="http://www.w3.org/1999/xlink">
    <defs/>
    <path id="Vector 47" d="M37.45 12.95L12.95 37.45L11.54 36.04L36.04 11.54L37.45 12.95ZM36.04 11.57L36.04 11.54C36.43 11.14 37.06 11.14 37.45 11.54C37.85 11.93 37.85 12.56 37.45 12.95L37.42 12.95L36.04 11.57ZM12.95 37.42L12.95 37.45C12.56 37.85 11.93 37.85 11.54 37.45C11.14 37.06 11.14 36.43 11.54 36.04L11.57 36.04L12.95 37.42Z" fill="#33363F" fill-opacity="1.000000" fill-rule="evenodd"/>
    <path id="Vector 48" d="M11.54 12.95L36.04 37.45L37.45 36.04L12.95 11.54L11.54 12.95ZM12.95 11.57L12.95 11.54C12.56 11.14 11.93 11.14 11.54 11.54C11.14 11.93 11.14 12.56 11.54 12.95L11.57 12.95L12.95 11.57ZM36.04 37.42L36.04 37.45C36.43 37.85 37.06 37.85 37.45 37.45C37.85 37.06 37.85 36.43 37.45 36.04L37.42 36.04L36.04 37.42Z" fill="#33363F" fill-opacity="1.000000" fill-rule="evenodd"/>
</svg>