<svg width="229" height="280" viewBox="0 0 229 280" fill="none" xmlns="http://www.w3.org/2000/svg">
    <g filter="url(#filter0_d_385_11954)">
        <path d="M44.644 241.483C42.3247 242.078 39.4572 242.944 37.734 244.687C35.6346 246.812 34.8626 250.048 34.1765 253.276C34.1104 253.587 33.684 253.587 33.6174 253.276C33.0642 250.69 32.351 247.585 30.8537 245.664C28.9489 243.222 26.0144 242.222 23.1331 241.483C22.8319 241.406 22.8319 240.994 23.1331 240.917C25.6529 240.27 28.5397 239.414 30.3422 237.431C32.2213 235.364 32.9758 232.123 33.6174 229.124C33.684 228.813 34.1104 228.813 34.1765 229.124C34.7753 231.941 35.7973 235.143 37.5015 237.152C39.3518 239.333 41.9656 240.229 44.644 240.917C44.9452 240.994 44.9452 241.406 44.644 241.483Z" fill="#ED1C24"/>
        <path d="M180.931 61.2095C178.867 61.7392 176.314 62.5093 174.78 64.0616C172.912 65.9527 172.224 68.8339 171.614 71.7065C171.555 71.9836 171.175 71.9837 171.116 71.7069C170.623 69.4045 169.989 66.6404 168.656 64.9311C166.96 62.7567 164.348 61.8671 161.783 61.2095C161.515 61.1407 161.515 60.7739 161.783 60.7051C164.026 60.1298 166.596 59.3671 168.2 57.602C169.873 55.762 170.545 52.8774 171.116 50.2075C171.175 49.9307 171.554 49.9308 171.613 50.2079C172.146 52.7157 173.056 55.5653 174.573 57.3534C176.22 59.295 178.547 60.0933 180.931 60.7049C181.2 60.7739 181.2 61.1405 180.931 61.2095Z" fill="#ED1C24"/>
        <path d="M204.707 234.516C201.393 235.366 197.295 236.603 194.832 239.095C191.832 242.131 190.728 246.757 189.748 251.369C189.654 251.814 189.044 251.814 188.949 251.37C188.158 247.673 187.139 243.236 184.999 240.491C182.277 237 178.083 235.572 173.966 234.516C173.535 234.406 173.535 233.817 173.966 233.706C177.567 232.783 181.692 231.558 184.268 228.724C186.954 225.77 188.032 221.139 188.949 216.853C189.044 216.408 189.653 216.409 189.748 216.853C190.604 220.879 192.064 225.454 194.5 228.325C197.144 231.443 200.88 232.724 204.707 233.706C205.138 233.817 205.138 234.406 204.707 234.516Z" fill="#ED1C24"/>
        <path d="M189.227 77.4406C188.102 77.7293 186.711 78.1489 185.875 78.995C184.857 80.0256 184.482 81.5956 184.149 83.1611C184.117 83.3121 183.911 83.3121 183.878 83.1613C183.61 81.9066 183.264 80.4003 182.537 79.4687C181.614 78.2838 180.19 77.7991 178.792 77.4406C178.646 77.4031 178.646 77.2032 178.792 77.1657C180.015 76.8522 181.415 76.4365 182.289 75.4747C183.201 74.4721 183.567 72.8999 183.878 71.4451C183.911 71.2942 184.117 71.2944 184.149 71.4452C184.44 72.8119 184.936 74.3648 185.762 75.3393C186.66 76.3974 187.928 76.8325 189.227 77.1657C189.373 77.2032 189.373 77.4031 189.227 77.4406Z" fill="#ED1C24"/>
        <path d="M65.4489 253.281C64.3237 253.569 62.9327 253.989 62.0968 254.835C61.0783 255.865 60.7038 257.436 60.3711 259.001C60.339 259.152 60.1322 259.152 60.0998 259.001C59.8315 257.747 59.4856 256.24 58.7591 255.309C57.8352 254.124 56.4116 253.639 55.0139 253.281C54.8678 253.243 54.8678 253.043 55.0139 253.006C56.2362 252.692 57.6366 252.276 58.511 251.315C59.4225 250.312 59.7886 248.74 60.0998 247.285C60.132 247.134 60.339 247.134 60.3711 247.285C60.6616 248.652 61.1574 250.205 61.984 251.179C62.8816 252.237 64.1495 252.672 65.4487 253.006C65.595 253.043 65.595 253.243 65.4489 253.281Z" fill="#ED1C24"/>
        <path d="M207.962 213.64C206.837 213.929 205.446 214.348 204.61 215.194C203.592 216.225 203.217 217.795 202.885 219.36C202.853 219.511 202.646 219.511 202.613 219.36C202.345 218.106 201.999 216.6 201.273 215.668C200.349 214.483 198.925 213.998 197.528 213.64C197.381 213.602 197.381 213.402 197.528 213.365C198.75 213.051 200.15 212.636 201.025 211.674C201.936 210.671 202.302 209.099 202.613 207.644C202.646 207.493 202.853 207.494 202.885 207.644C203.175 209.011 203.671 210.564 204.498 211.539C205.395 212.597 206.663 213.032 207.962 213.365C208.109 213.402 208.109 213.602 207.962 213.64Z" fill="#ED1C24"/>
        <path d="M66.9668 224.255C49.9612 224.255 36.126 210.412 36.126 193.396V116.41C36.126 99.3943 49.9611 85.5508 66.9668 85.5508H163.304C180.309 85.5508 194.144 99.3943 194.144 116.41V193.396C194.144 210.412 180.309 224.255 163.304 224.255L66.9668 224.255Z" fill="url(#paint0_linear_385_11954)"/>
        <path d="M163.304 86.676C179.715 86.676 193.018 99.9877 193.018 116.408V193.394C193.018 209.815 179.715 223.126 163.304 223.126H66.9671C50.5564 223.126 37.2528 209.815 37.2528 193.394V116.408C37.2528 99.9877 50.5564 86.676 66.9671 86.676H163.304ZM163.304 84.4219H66.9671C62.6526 84.4219 58.4658 85.2679 54.5233 86.9364C50.7165 88.5475 47.2979 90.8537 44.3629 93.7905C41.4279 96.7273 39.1232 100.148 37.513 103.957C35.8455 107.902 35 112.091 35 116.408V193.394C35 197.711 35.8455 201.9 37.513 205.845C39.1232 209.654 41.4279 213.075 44.3629 216.012C47.2979 218.949 50.7165 221.255 54.5233 222.866C58.4658 224.534 62.6526 225.38 66.9671 225.38H163.304C167.619 225.38 171.805 224.534 175.748 222.866C179.554 221.255 182.973 218.949 185.908 216.012C188.843 213.075 191.148 209.654 192.758 205.845C194.425 201.9 195.271 197.711 195.271 193.394V116.408C195.271 112.091 194.425 107.902 192.758 103.957C191.148 100.148 188.843 96.7273 185.908 93.7905C182.973 90.8537 179.554 88.5475 175.748 86.9364C171.805 85.2679 167.619 84.4219 163.304 84.4219Z" fill="#91000C"/>
        <path d="M66.9671 217.492C53.6878 217.492 42.8848 206.682 42.8848 193.395V116.409C42.8848 103.122 53.6878 92.3125 66.9671 92.3125H163.304C176.583 92.3125 187.386 103.122 187.386 116.409V193.395C187.386 206.682 176.583 217.492 163.304 217.492L66.9671 217.492Z" fill="url(#paint1_linear_385_11954)"/>
        <path opacity="0.81" d="M132.629 153.7C137.953 148.358 143.278 143.014 148.602 137.671C153.52 132.735 154.05 125.609 149.593 120.14C145.524 115.148 136.664 114.541 132.073 119.149C126.427 124.814 120.781 130.48 115.136 136.146C109.49 130.48 103.844 124.814 98.1981 119.149C93.6069 114.541 84.747 115.148 80.678 120.14C76.2211 125.609 76.7508 132.735 81.6692 137.671C86.9934 143.014 92.3178 148.358 97.6421 153.7C92.3178 159.044 86.9934 164.387 81.6692 169.73C76.7508 174.666 76.2211 181.792 80.678 187.261C84.747 192.253 93.6069 192.86 98.1983 188.252C103.844 182.587 109.49 176.921 115.136 171.255C120.782 176.921 126.427 182.587 132.073 188.252C136.664 192.86 145.524 192.253 149.593 187.261C154.05 181.792 153.52 174.666 148.602 169.73C143.278 164.387 137.953 159.044 132.629 153.7Z" fill="url(#paint2_linear_385_11954)"/>
        <path d="M132.629 151.333C137.953 145.99 143.278 140.647 148.602 135.304C153.52 130.368 154.05 123.242 149.593 117.773C145.524 112.781 136.664 112.174 132.073 116.781C126.427 122.447 120.781 128.113 115.136 133.778C109.49 128.113 103.844 122.447 98.1981 116.781C93.6069 112.174 84.747 112.781 80.678 117.773C76.2211 123.242 76.7508 130.368 81.6692 135.304C86.9934 140.647 92.3178 145.99 97.6421 151.333C92.3178 156.676 86.9934 162.02 81.6692 167.362C76.7508 172.298 76.2211 179.425 80.678 184.893C84.747 189.886 93.6069 190.493 98.1983 185.885C103.844 180.219 109.49 174.554 115.136 168.888C120.782 174.554 126.427 180.219 132.073 185.885C136.664 190.493 145.524 189.886 149.593 184.893C154.05 179.425 153.52 172.298 148.602 167.362C143.278 162.02 137.953 156.676 132.629 151.333Z" fill="white"/>
        <path opacity="0.27" d="M55.907 95.6617C61.6498 92.7757 68.4059 92.3546 74.7295 93.5005C64.454 94.9168 54.7551 100.187 47.9721 108.039C45.9177 110.368 44.2665 113.302 43.5732 116.317C43.5732 114.439 44.8871 108.898 45.2422 107.834C46.3241 104.591 48.3287 101.56 50.811 99.2274C52.3264 97.8026 54.0485 96.5955 55.907 95.6617Z" fill="white"/>
    </g>
    <defs>
        <filter id="filter0_d_385_11954" x="-30" y="0" width="288.072" height="309.113" filterUnits="userSpaceOnUse" color-interpolation-filters="sRGB">
            <feFlood flood-opacity="0" result="BackgroundImageFix"/>
            <feColorMatrix in="SourceAlpha" type="matrix" values="0 0 0 0 0 0 0 0 0 0 0 0 0 0 0 0 0 0 127 0" result="hardAlpha"/>
            <feOffset/>
            <feGaussianBlur stdDeviation="25"/>
            <feComposite in2="hardAlpha" operator="out"/>
            <feColorMatrix type="matrix" values="0 0 0 0 0.878431 0 0 0 0 0 0 0 0 0 0.0117647 0 0 0 0.5 0"/>
            <feBlend mode="normal" in2="BackgroundImageFix" result="effect1_dropShadow_385_11954"/>
            <feBlend mode="normal" in="SourceGraphic" in2="effect1_dropShadow_385_11954" result="shape"/>
        </filter>
        <linearGradient id="paint0_linear_385_11954" x1="42.7317" y1="92.0027" x2="179.233" y2="210.443" gradientUnits="userSpaceOnUse">
            <stop stop-color="#DE0000"/>
            <stop offset="1" stop-color="#FF003D"/>
        </linearGradient>
        <linearGradient id="paint1_linear_385_11954" x1="48.0244" y1="96.5997" x2="174.548" y2="206.383" gradientUnits="userSpaceOnUse">
            <stop stop-color="#FF003D"/>
            <stop offset="1" stop-color="#DE0000"/>
        </linearGradient>
        <linearGradient id="paint2_linear_385_11954" x1="68.0787" y1="140.794" x2="170.651" y2="168.893" gradientUnits="userSpaceOnUse">
            <stop stop-color="#C90000"/>
            <stop offset="1" stop-color="#FF003D"/>
        </linearGradient>
    </defs>
</svg>
