<svg width="254" height="241" viewBox="0 0 254 241" fill="none" xmlns="http://www.w3.org/2000/svg">
    <path d="M50.064 40.5613C47.7446 41.1563 44.8771 42.0215 43.1539 43.7654C41.0545 45.8899 40.2825 49.1266 39.5964 52.3538C39.5304 52.665 39.1039 52.6652 39.0373 52.3541C38.4841 49.7677 37.7709 46.6626 36.2736 44.7422C34.3688 42.2995 31.4343 41.3002 28.553 40.5613C28.2519 40.484 28.2519 40.072 28.553 39.9947C31.0728 39.3484 33.9597 38.4915 35.7621 36.5088C37.6412 34.4419 38.3957 31.2011 39.0373 28.2019C39.1039 27.8908 39.5304 27.8911 39.5964 28.2022C40.1952 31.0194 41.2173 34.2208 42.9214 36.2297C44.7718 38.4108 47.3855 39.3076 50.064 39.9947C50.3651 40.072 50.3651 40.484 50.064 40.5613Z" fill="#89D81A"/>
    <path d="M58.0962 201.445C55.4882 202.114 52.2639 203.087 50.3262 205.048C47.9655 207.436 47.0973 211.076 46.326 214.705C46.2517 215.055 45.7721 215.055 45.6973 214.705C45.0752 211.797 44.2734 208.305 42.5897 206.146C40.4479 203.399 37.1482 202.276 33.9084 201.445C33.5697 201.358 33.5695 200.895 33.9084 200.808C36.7416 200.081 39.9879 199.118 42.0146 196.888C44.1275 194.564 44.9759 190.92 45.6973 187.547C45.7721 187.198 46.2517 187.198 46.326 187.548C46.9994 190.716 48.1485 194.315 50.0648 196.574C52.1452 199.027 55.0844 200.035 58.096 200.808C58.4349 200.895 58.4349 201.358 58.0962 201.445Z" fill="#89D81A"/>
    <path d="M33.5444 112.472C32.4193 112.761 31.0283 113.18 30.1925 114.026C29.174 115.057 28.7995 116.627 28.4668 118.192C28.4347 118.343 28.2279 118.343 28.1955 118.193C27.9272 116.938 27.5813 115.432 26.8548 114.5C25.9309 113.315 24.5073 112.83 23.1096 112.472C22.9635 112.434 22.9635 112.235 23.1096 112.197C24.3319 111.884 25.7323 111.468 26.6067 110.506C27.5182 109.503 27.8843 107.931 28.1955 106.476C28.2277 106.326 28.4347 106.326 28.4668 106.477C28.7572 107.843 29.2531 109.396 30.0797 110.371C30.9773 111.429 32.2452 111.864 33.5444 112.197C33.6906 112.235 33.6906 112.434 33.5444 112.472Z" fill="#89D81A"/>
    <path d="M89.2749 28.1086C88.1497 28.3971 86.7587 28.8169 85.9229 29.6629C84.9045 30.6935 84.53 32.2635 84.1972 33.8291C84.1652 33.9801 83.9583 33.9801 83.926 33.8292C83.6575 32.5746 83.3116 31.0683 82.5853 30.1367C81.6614 28.9518 80.2378 28.467 78.8401 28.1086C78.6939 28.0711 78.6939 27.8712 78.8401 27.8337C80.0624 27.5202 81.4628 27.1045 82.3372 26.1426C83.2486 25.14 83.6148 23.5679 83.926 22.1131C83.9582 21.9622 84.1652 21.9624 84.1972 22.1132C84.4877 23.4799 84.9835 25.0328 85.8102 26.0073C86.7078 27.0653 87.9758 27.5004 89.275 27.8337C89.421 27.8712 89.421 28.0711 89.2749 28.1086Z" fill="#89D81A"/>
    <path d="M133.667 214.323C132.541 214.612 131.151 215.032 130.315 215.878C129.296 216.908 128.922 218.478 128.589 220.044C128.557 220.195 128.35 220.195 128.318 220.044C128.049 218.79 127.703 217.283 126.977 216.352C126.053 215.167 124.629 214.682 123.232 214.323C123.086 214.286 123.086 214.086 123.232 214.049C124.454 213.735 125.854 213.319 126.729 212.358C127.64 211.355 128.006 209.783 128.318 208.328C128.35 208.177 128.557 208.177 128.589 208.328C128.879 209.695 129.375 211.248 130.202 212.222C131.099 213.28 132.367 213.715 133.666 214.049C133.813 214.086 133.813 214.286 133.667 214.323Z" fill="#89D81A"/>
    <path d="M206.712 40.5613C209.032 41.1563 211.899 42.0215 213.622 43.7654C215.722 45.8899 216.494 49.1266 217.18 52.3538C217.246 52.665 217.672 52.6652 217.739 52.3541C218.292 49.7677 219.005 46.6626 220.503 44.7422C222.408 42.2995 225.342 41.3002 228.223 40.5613C228.525 40.484 228.525 40.072 228.223 39.9947C225.704 39.3484 222.817 38.4915 221.014 36.5088C219.135 34.4419 218.381 31.2011 217.739 28.2019C217.672 27.8908 217.246 27.8911 217.18 28.2022C216.581 31.0194 215.559 34.2208 213.855 36.2297C212.005 38.4108 209.391 39.3076 206.712 39.9947C206.411 40.072 206.411 40.484 206.712 40.5613Z" fill="#89D81A"/>
    <path d="M198.68 201.445C201.288 202.114 204.512 203.087 206.45 205.048C208.811 207.436 209.679 211.076 210.45 214.705C210.525 215.055 211.004 215.055 211.079 214.705C211.701 211.797 212.503 208.305 214.187 206.146C216.329 203.399 219.628 202.276 222.868 201.445C223.207 201.358 223.207 200.895 222.868 200.808C220.035 200.081 216.788 199.118 214.762 196.888C212.649 194.564 211.8 190.92 211.079 187.547C211.004 187.198 210.525 187.198 210.45 187.548C209.777 190.716 208.628 194.315 206.712 196.574C204.631 199.027 201.692 200.035 198.68 200.808C198.342 200.895 198.342 201.358 198.68 201.445Z" fill="#89D81A"/>
    <path d="M223.232 112.472C224.357 112.761 225.748 113.18 226.584 114.026C227.602 115.057 227.977 116.627 228.31 118.192C228.342 118.343 228.548 118.343 228.581 118.193C228.849 116.938 229.195 115.432 229.922 114.5C230.845 113.315 232.269 112.83 233.667 112.472C233.813 112.434 233.813 112.235 233.667 112.197C232.444 111.884 231.044 111.468 230.17 110.506C229.258 109.503 228.892 107.931 228.581 106.476C228.549 106.326 228.342 106.326 228.31 106.477C228.019 107.843 227.523 109.396 226.697 110.371C225.799 111.429 224.531 111.864 223.232 112.197C223.086 112.235 223.086 112.434 223.232 112.472Z" fill="#89D81A"/>
    <path d="M167.501 28.1086C168.627 28.3971 170.018 28.8169 170.853 29.6629C171.872 30.6935 172.246 32.2635 172.579 33.8291C172.611 33.9801 172.818 33.9801 172.85 33.8292C173.119 32.5746 173.465 31.0683 174.191 30.1367C175.115 28.9518 176.539 28.467 177.936 28.1086C178.082 28.0711 178.082 27.8712 177.936 27.8337C176.714 27.5202 175.314 27.1045 174.439 26.1426C173.528 25.14 173.162 23.5679 172.85 22.1131C172.818 21.9622 172.611 21.9624 172.579 22.1132C172.289 23.4799 171.793 25.0328 170.966 26.0073C170.069 27.0653 168.801 27.5004 167.501 27.8337C167.355 27.8712 167.355 28.0711 167.501 28.1086Z" fill="#89D81A"/>
    <path d="M123.11 214.323C124.235 214.612 125.626 215.032 126.462 215.878C127.48 216.908 127.855 218.478 128.188 220.044C128.22 220.195 128.426 220.195 128.459 220.044C128.727 218.79 129.073 217.283 129.799 216.352C130.723 215.167 132.147 214.682 133.545 214.323C133.691 214.286 133.691 214.086 133.545 214.049C132.322 213.735 130.922 213.319 130.048 212.358C129.136 211.355 128.77 209.783 128.459 208.328C128.427 208.177 128.22 208.177 128.188 208.328C127.897 209.695 127.401 211.248 126.575 212.222C125.677 213.28 124.409 213.715 123.11 214.049C122.964 214.086 122.964 214.286 123.11 214.323Z" fill="#89D81A"/>
    <g filter="url(#filter0_d_385_11893)">
        <path d="M76.0271 190.044C59.0216 190.044 45.1865 176.201 45.1865 159.185V82.1992C45.1865 65.1833 59.0216 51.3398 76.0271 51.3398H172.364C189.37 51.3398 203.205 65.1833 203.205 82.1992V159.185C203.205 176.201 189.37 190.044 172.364 190.044L76.0271 190.044Z" fill="url(#paint0_linear_385_11893)"/>
        <path d="M172.364 52.4651C188.775 52.4651 202.079 65.7767 202.079 82.1975V159.183C202.079 175.604 188.775 188.915 172.364 188.915H76.0275C59.6167 188.915 46.3133 175.604 46.3133 159.183V82.1975C46.3133 65.7767 59.6169 52.4651 76.0275 52.4651H172.364ZM172.364 50.2109H76.0275C71.713 50.2109 67.5262 51.057 63.5839 52.7255C59.777 54.3366 56.3585 56.6427 53.4235 59.5795C50.4884 62.5164 48.1837 65.937 46.5736 69.7461C44.9061 73.691 44.0605 77.8803 44.0605 82.1975V159.183C44.0605 163.5 44.9061 167.689 46.5736 171.634C48.1837 175.443 50.4884 178.864 53.4235 181.801C56.3585 184.738 59.777 187.044 63.5839 188.655C67.5263 190.323 71.713 191.17 76.0275 191.17H172.364C176.679 191.17 180.866 190.323 184.808 188.655C188.615 187.044 192.034 184.738 194.969 181.801C197.904 178.864 200.208 175.443 201.818 171.634C203.486 167.689 204.331 163.5 204.331 159.183V82.1975C204.331 77.8803 203.486 73.6912 201.818 69.7461C200.208 65.937 197.904 62.5164 194.969 59.5795C192.034 56.6427 188.615 54.3366 184.808 52.7255C180.866 51.057 176.679 50.2109 172.364 50.2109Z" fill="#15A208"/>
        <path d="M76.0276 183.281C62.7485 183.281 51.9453 172.471 51.9453 159.184V82.1985C51.9453 68.9113 62.7484 58.1016 76.0276 58.1016H172.364C185.643 58.1016 196.447 68.9112 196.447 82.1985V159.184C196.447 172.471 185.643 183.281 172.364 183.281L76.0276 183.281Z" fill="url(#paint1_linear_385_11893)"/>
        <path opacity="0.38" d="M164.709 85.9548C160.256 82.3208 152.744 81.8964 148.881 86.8508C142.312 95.2753 135.536 103.536 128.538 111.608C125.097 115.577 121.604 119.502 118.061 123.381C116.445 125.15 114.816 126.907 113.179 128.656C112.58 128.167 111.983 127.677 111.393 127.177C108.344 124.591 105.435 121.852 102.635 118.999C98.5169 114.805 90.4631 115.409 86.8065 119.895C82.7565 124.864 83.2905 131.24 87.702 135.733C93.6104 141.751 100.275 148.1 107.624 152.336C113.746 155.865 120.063 153.836 124.733 149.062C127.671 146.059 130.521 142.963 133.365 139.872C144.629 127.627 155.374 114.913 165.605 101.793C169.205 97.1761 169.621 89.963 164.709 85.9548Z" fill="url(#paint2_linear_385_11893)"/>
        <path d="M164.709 82.8962C160.256 79.2621 152.744 78.8378 148.881 83.7922C142.312 92.2168 135.536 100.477 128.538 108.549C125.097 112.519 121.604 116.444 118.061 120.322C116.445 122.091 114.816 123.848 113.179 125.598C112.58 125.108 111.983 124.618 111.393 124.118C108.344 121.532 105.435 118.793 102.635 115.941C98.5169 111.746 90.4631 112.35 86.8065 116.837C82.7565 121.806 83.2905 128.182 87.702 132.675C93.6104 138.693 100.275 145.042 107.624 149.277C113.746 152.807 120.063 150.777 124.733 146.003C127.671 143.001 130.521 139.905 133.365 136.813C144.629 124.568 155.374 111.855 165.605 98.7343C169.205 94.1176 169.621 86.9043 164.709 82.8962Z" fill="white"/>
        <path opacity="0.34" d="M65.2361 61.4507C70.9789 58.5647 77.735 58.1436 84.0586 59.2895C73.7831 60.7059 64.0842 65.9756 57.3012 73.8279C55.2469 76.1575 53.5956 79.0909 52.9023 82.1065C52.9023 80.2281 54.2162 74.6871 54.5713 73.6229C55.6534 70.3803 57.6578 67.3494 60.1401 65.0164C61.6555 63.5917 63.3776 62.3846 65.2361 61.4507Z" fill="white"/>
    </g>
    <defs>
        <filter id="filter0_d_385_11893" x="-5.93945" y="0.210938" width="260.271" height="240.957" filterUnits="userSpaceOnUse" color-interpolation-filters="sRGB">
            <feFlood flood-opacity="0" result="BackgroundImageFix"/>
            <feColorMatrix in="SourceAlpha" type="matrix" values="0 0 0 0 0 0 0 0 0 0 0 0 0 0 0 0 0 0 127 0" result="hardAlpha"/>
            <feOffset/>
            <feGaussianBlur stdDeviation="25"/>
            <feComposite in2="hardAlpha" operator="out"/>
            <feColorMatrix type="matrix" values="0 0 0 0 0.219608 0 0 0 0 0.580392 0 0 0 0 0.0156863 0 0 0 0.5 0"/>
            <feBlend mode="normal" in2="BackgroundImageFix" result="effect1_dropShadow_385_11893"/>
            <feBlend mode="normal" in="SourceGraphic" in2="effect1_dropShadow_385_11893" result="shape"/>
        </filter>
        <linearGradient id="paint0_linear_385_11893" x1="49.1643" y1="56.5751" x2="194.128" y2="180.301" gradientUnits="userSpaceOnUse">
            <stop stop-color="#49C00F"/>
            <stop offset="1" stop-color="#89D81A"/>
        </linearGradient>
        <linearGradient id="paint1_linear_385_11893" x1="54.6478" y1="61.2602" x2="189.018" y2="175.944" gradientUnits="userSpaceOnUse">
            <stop stop-color="#89D81A"/>
            <stop offset="1" stop-color="#49C00F"/>
        </linearGradient>
        <linearGradient id="paint2_linear_385_11893" x1="84.0586" y1="118.65" x2="168.352" y2="118.65" gradientUnits="userSpaceOnUse">
            <stop stop-color="#49C00F"/>
            <stop offset="1" stop-color="#89D81A"/>
        </linearGradient>
    </defs>
</svg>
